<svg xmlns="http://www.w3.org/2000/svg" xmlns:svg="http://www.w3.org/2000/svg" id="svg2" width="100%" height="100%" version="1.1" viewBox="0 0 19.469 19.469"><metadata id="metadata90"/><g id="layer4" display="inline"><path id="path3303" fill="param(fill)" fill-opacity=".5" stroke="none" stroke-dasharray="none" stroke-linecap="square" stroke-linejoin="miter" stroke-miterlimit="4" stroke-opacity="1" stroke-width=".2" d="m 3.69375,3.69375 2.28125,4 1.34375,-0.375 0.34375,-1.3125 -3.96875,-2.3125 z" display="inline"/><path id="path3301" fill="param(fill)" fill-opacity=".5" stroke="none" stroke-dasharray="none" stroke-linecap="square" stroke-linejoin="miter" stroke-miterlimit="4" stroke-opacity="1" stroke-width=".2" d="m 15.775,3.69375 -4,2.28125 0.375,1.34375 1.34375,0.375 2.28125,-4 z" display="inline"/><path id="path3299" fill="param(fill)" fill-opacity=".5" stroke="none" stroke-dasharray="none" stroke-linecap="square" stroke-linejoin="miter" stroke-miterlimit="4" stroke-opacity="1" stroke-width=".2" d="M 6.00625,11.80625 3.69375,15.775 7.6625,13.4625 7.31875,12.15 6.00625,11.80625 z" display="inline"/><path id="path3137-4-9" fill="param(fill)" fill-opacity=".5" stroke="none" stroke-dasharray="none" stroke-linecap="square" stroke-linejoin="miter" stroke-miterlimit="4" stroke-opacity="1" stroke-width=".2" d="M 13.4625,11.80625 12.15,12.15 l -0.375,1.34375 4,2.28125 -2.3125,-3.96875 z" display="inline"/></g><g id="layer3" display="inline"><path font-size="medium" style="text-indent:0;text-align:start;line-height:normal;text-transform:none;block-progression:tb;marker:none;-inkscape-font-specification:Sans" id="path3049" fill="param(fill)" fill-opacity="255" stroke="param(outline)" stroke-opacity="255" stroke-width=".237" d="m 9.7375,0.11875 c -5.3108819,0 -9.61875,4.3078672 -9.61875,9.6187503 0,5.3108817 4.3078681,9.6187497 9.61875,9.6187497 5.310882,0 9.61875,-4.307868 9.61875,-9.6187497 0,-5.3108831 -4.307868,-9.6187503 -9.61875,-9.6187503 z m 0,19 c -5.1825274,0 -9.38125,-4.198723 -9.38125,-9.3812497 0,-5.1825286 4.1987226,-9.3812503 9.38125,-9.3812503 5.182527,0 9.38125,4.1987217 9.38125,9.3812503 0,5.1825267 -4.198723,9.3812497 -9.38125,9.3812497" baseline-shift="baseline" direction="ltr" display="inline" enable-background="accumulate" font-family="Sans" font-stretch="normal" font-style="normal" font-variant="normal" font-weight="normal" letter-spacing="normal" overflow="visible" text-anchor="start" text-decoration="none" visibility="visible" word-spacing="normal" writing-mode="lr-tb"/><path id="path3137" fill="param(fill) #000" fill-opacity="255" stroke="param(fill) #000" stroke-opacity="255" d="M 40,26.620001 32.12132,28.741321 30,36.620001 27.87868,28.741321 20,26.620001 27.87868,24.498681 30,16.620001 32.12132,24.49868 z" transform="matrix(0.9076178,0,0,0.90807237,-17.497969,-14.436479)"/></g></svg>
