<svg xmlns="http://www.w3.org/2000/svg" width="16" height="16" enable-background="new 0 0 24 24" viewBox="0 0 16 16"><g stroke-linecap="square"><g opacity=".835" transform="translate(0 -16) matrix(.90237132 0 0 1 1.2895278 .125)"><path fill="none" stroke="#888a85" stroke-linejoin="round" stroke-width="3.158" d="m6.618053 21.551166c.09979-2.918246.798331-4.239386 3.213153-4.06144 2.414551.177516 2.957532 1.588859 2.857291 4.507339"/><path fill="none" stroke="#eeeeec" stroke-linejoin="round" stroke-width="1.053" d="m6.606018 21.551166c.09979-2.918246.798331-4.27316 3.213153-4.095215 2.414551.177516 2.957532 1.622634 2.857292 4.541114"/><rect width="10" height="6" x="4.688" y="22.397" fill="#e5dba9" stroke="#9f8e41" stroke-width="1.053" opacity="1" rx=".769" ry=".857"/></g><g transform="translate(0 -16) matrix(.89256949 0 0 1 .18267329 0)"><path fill="none" stroke="#888a85" stroke-linejoin="round" stroke-width="3.175" d="m3.4305529 23.654471c.099794-2.918246.7983306-4.239386 3.213153-4.06144 2.414551.177516 2.9575317 1.588859 2.8572907 4.507339"/><path fill="none" stroke="#eeeeec" stroke-linejoin="round" stroke-width="1.058" d="m3.4185183 23.654471c.099794-2.918246.7983306-4.27316 3.213153-4.095215 2.4145507.177516 2.9575314 1.622634 2.8572913 4.541114"/><rect width="10" height="6" x="1.5" y="24.5" fill="#e5dba9" stroke="#9f8e41" stroke-width="1.058" rx=".769" ry=".857"/></g></g></svg>
