<svg xmlns="http://www.w3.org/2000/svg" width="24" height="24"><g transform="translate(0 -8)"><g transform="matrix(.69230769 0 0 .69230769 1.8461539 9.8461539)"><rect width="13" height="13" x="19" y="19" fill="#5a8c5a" rx="2.615" ry="2.615"/><path fill="#fff" fill-rule="evenodd" stroke="#fff" stroke-linecap="round" stroke-linejoin="round" stroke-width="2.6" d="m21.6 25.499999l7.8 0" overflow="visible"/><path fill="#fff" fill-rule="evenodd" stroke="#fff" stroke-linecap="round" stroke-linejoin="round" stroke-width="2.6" d="m25.5 29.399999l0-7.799999" overflow="visible"/><path fill="#fcffff" fill-rule="evenodd" d="m20.3 25.499999h10.4c0 0 0 0 0-2.6 0-2.599999-.65-2.599999-5.2-2.599999-4.55 0-5.2 0-5.2 2.599999 0 2.6 0 2.6 0 2.6z" opacity=".3"/></g><circle cx="12" cy="20" r="8.5" fill="#2a7fff" stroke="#333" stroke-linejoin="round" stroke-miterlimit=".4" stroke-opacity=".973" stroke-width="1.002" transform="matrix(.29411765 0 0 .29411762 -.02941178 14.117648)"/><path fill="none" stroke="#000" d="m5.7092162 5.3723515l-1.4184324 4.255297" transform="translate(0 8)"/><circle cx="12" cy="20" r="8.5" fill="#2a7fff" stroke="#333" stroke-linejoin="round" stroke-miterlimit=".4" stroke-opacity=".973" stroke-width="1.002" transform="matrix(.29411765 0 0 .29411762 2.9705882 5.1176476)"/><circle cx="12" cy="20" r="8.5" fill="#2a7fff" stroke="#333" stroke-linejoin="round" stroke-miterlimit=".4" stroke-opacity=".973" stroke-width="1.002" transform="matrix(.29411765 0 0 .29411762 16.970588 6.1176476)"/><circle cx="12" cy="20" r="8.5" fill="#2a7fff" stroke="#333" stroke-linejoin="round" stroke-miterlimit=".4" stroke-opacity=".973" stroke-width="1.002" transform="matrix(.29411765 0 0 .29411762 5.9705882 23.117648)"/><path fill="none" stroke="#000" d="m8.9937522 3.1781252l9.0124958.6437496" transform="translate(0 8)"/><path fill="none" stroke="#000" d="m4.8868972 14.080346l3.2262057 4.839309" transform="translate(0 8)"/></g></svg>