<svg xmlns="http://www.w3.org/2000/svg" xmlns:svg="http://www.w3.org/2000/svg" id="svg39" width="24" height="24" version="1.1"><metadata id="metadata45"/><linearGradient id="a" x1="33.051" x2="4.624" y1="35.071" y2="4.728" gradientTransform="matrix(0.78185227,0,0,0.7818667,-0.53814044,-0.51053502)" gradientUnits="userSpaceOnUse"><stop id="stop2" offset="0" stop-color="#6e97c4"/><stop id="stop4" offset="1" stop-color="#ecedef"/></linearGradient><path id="path7" fill="url(#a)" stroke="#2e4e72" stroke-width=".5" d="M 2.7635417,1.2486651 H 21.179451 c 0.857905,0 1.542514,0.6887606 1.542514,1.5518652 V 21.172272 c 0,0.863104 -0.684609,1.577728 -1.542514,1.577728 H 2.7635417 c -0.8579045,0 -1.5425144,-0.714624 -1.5425144,-1.577728 V 2.8005303 c 0,-0.8631046 0.6846099,-1.5518652 1.5425144,-1.5518652 z" overflow="visible"/><path id="path9" fill="none" stroke="#415a75" stroke-linecap="round" stroke-linejoin="round" stroke-width="1.5" d="M 2.1983425,2.2259985 8.4531608,17.863327 15.489831,2.2259985 h 6.254818" overflow="visible"/><ellipse id="ellipse11" cx="8.453" cy="17.863" fill="#eeeeec" fill-rule="evenodd" stroke="#415a75" stroke-dasharray="none" stroke-linecap="round" stroke-linejoin="round" stroke-miterlimit="4" stroke-width="1" overflow="visible" rx="1.955" ry="1.955"/><path id="path13" fill="#eeeeec" fill-rule="evenodd" stroke-width="1" d="M 4.2027216,1.2809209 3.8279679,3.4018646 2.7119121,4.2113267 1.3193231,4.4284967 1.3620678,2.4307094 1.8374251,1.583324 2.7190964,1.360099 Z"/><path id="path15" fill="#415a75" fill-rule="evenodd" stroke-width="1" d="m 2.6595133,1.100538 c -0.037307,0 -0.071813,0.00812 -0.108421,0.01069 0.4784828,0.1473855 0.8200286,0.5820943 0.8200286,1.1147709 0,0.6569806 -0.51581,1.1728 -1.1727784,1.1728 -0.4927263,0 -0.9052881,-0.29091 -1.0811551,-0.713148 v 2.049346 c 0.3325298,0.1448605 0.6976374,0.2275353 1.0811551,0.2275353 1.502057,0 2.7364829,-1.2344486 2.7364829,-2.7365333 0,-0.4014789 -0.094052,-0.7806817 -0.2519641,-1.1254605 z" overflow="visible"/><path id="path17" fill="#eeeeec" fill-rule="evenodd" stroke-width="1" d="m 13.692203,1.2803045 0.173445,1.867702 2.054968,1.0510556 1.520779,-0.3924665 0.54384,-2.5750941 z"/><path id="path19" fill="#415a75" fill-rule="evenodd" stroke-dasharray="none" stroke-miterlimit="4" stroke-width="1" d="m 12.942698,1.248665 c -0.118404,0.3049135 -0.189349,0.6325171 -0.189349,0.9773335 0,1.5020847 1.234427,2.7365333 2.736482,2.7365333 1.502056,0 2.736483,-1.2344486 2.736483,-2.7365333 0,-0.3448164 -0.07248,-0.67242 -0.190889,-0.9773335 h -1.89202 c 0.314719,0.2083397 0.519204,0.5642488 0.519204,0.9773335 0,0.6569806 -0.515811,1.1728 -1.172778,1.1728 -0.656975,0 -1.172778,-0.5158194 -1.172778,-1.1728 0,-0.4130993 0.204462,-0.7689969 0.519197,-0.9773335 z" overflow="visible"/><path id="path21" fill="#eeeeec" fill-rule="evenodd" stroke-width="1" d="M 20.26938,1.2949286 20.655168,3.4230568 22.68986,4.2642325 22.652409,2.1853302 22.182618,1.6202262 21.432284,1.329257 Z"/><path id="path23" fill="#415a75" fill-rule="evenodd" stroke-width="1" d="m 19.9809,1.248665 c -0.118351,0.3048523 -0.190881,0.6326004 -0.190881,0.9773335 0,1.5020848 1.234426,2.7365333 2.736482,2.7365333 0.06675,0 0.129856,-0.015061 0.195464,-0.019852 V 3.3789461 c -0.06362,0.010317 -0.128513,0.019852 -0.195464,0.019852 -0.656968,0 -1.172778,-0.5158194 -1.172778,-1.1728 0,-0.3496134 0.149137,-0.6572339 0.384818,-0.8704376 C 21.56521,1.2884392 21.377748,1.248665 21.179639,1.248665 Z" overflow="visible"/><path id="path25" fill="none" stroke="#2e4e72" stroke-width=".5" d="M 2.7635417,1.248665 H 21.179451 c 0.857905,0 1.542514,0.6887605 1.542514,1.5518652 V 21.172271 c 0,0.863103 -0.684609,1.577728 -1.542514,1.577728 H 2.7635417 c -0.8579045,0 -1.5425144,-0.714625 -1.5425144,-1.577728 V 2.8005302 c 0,-0.8631047 0.6846099,-1.5518652 1.5425144,-1.5518652 z" overflow="visible"/><g id="g74" transform="matrix(0.692,0,0,0.692,1.86,1.82)"><rect id="rect68" width="13" height="13" x="19" y="19" fill="#c4a000" rx="2.61" ry="2.61"/><path id="path70" fill="#fcffff" fill-rule="evenodd" d="m 20.3,25.5 h 10.4 v -2.6 c 0,-2.6 -0.65,-2.6 -5.2,-2.6 -4.55,0 -5.2,0 -5.2,2.6 z" opacity=".3"/><path id="path72" fill="#fff" stroke="#fff" stroke-width=".497" d="m -6.46,-5.81 v 0.76 c 0,1.04 -0.16,1.76 -0.64,2.68 -0.72,1.56 -0.8,1.76 -0.8,2.36 0,1.16 0.88,2.12 1.92,2.12 1.08,0 1.92,-0.96 1.92,-2.16 0,-0.4 -0.12,-0.92 -0.4,-1.44 -0.92,-1.96 -1,-2.28 -1,-3.56 v -0.76 l 0.64,0.4 c 0.84,0.48 1.48,1.04 2.04,1.84 1.32,1.8 1.76,2.16 2.84,2.16 1,0 1.8,-0.76 1.8,-1.76 0,-1.24 -1.04,-2.16 -2.6,-2.28 -1.96,-0.12 -2.32,-0.2 -3.56,-0.88 l -0.64,-0.36 0.64,-0.36 c 0.92,-0.52 1.6,-0.76 2.64,-0.8 1.6,-0.16 1.72,-0.16 2.2,-0.36 0.8,-0.4 1.32,-1.12 1.32,-1.96 0,-1.04 -0.84,-1.84 -1.88,-1.84 -0.88,0 -1.6,0.44 -2.24,1.4 -1.12,1.68 -1.36,1.92 -2.56,2.64 l -0.64,0.4 v -0.76 c 0,-1 0.16,-1.76 0.64,-2.68 0.76,-1.6 0.8,-1.76 0.8,-2.32 0,-1.2 -0.88,-2.16 -1.96,-2.16 -1.04,0 -1.92,0.96 -1.92,2.12 0,0.44 0.12,0.96 0.4,1.48 0.96,2 1.04,2.28 1.04,3.56 v 0.76 l -0.64,-0.4 c -0.92,-0.52 -1.44,-1.04 -2.04,-1.88 -0.8,-1.2 -0.8,-1.2 -1.12,-1.52 -0.44,-0.4 -1.08,-0.64 -1.6,-0.64 -1.08,0 -1.92,0.84 -1.92,1.84 0,1.24 1,2.12 2.56,2.24 2.04,0.12 2.36,0.2 3.6,0.88 l 0.64,0.36 -0.64,0.4 c -0.84,0.48 -1.64,0.72 -2.64,0.8 -1.56,0.08 -1.68,0.12 -2.2,0.32 -0.8,0.36 -1.32,1.12 -1.32,1.96 0,1 0.84,1.84 1.88,1.84 0.88,0 1.64,-0.48 2.24,-1.4 1.08,-1.6 1.4,-1.96 2.56,-2.64 z" transform="matrix(0.603,0,0,0.604,29.1,29.5)"/></g></svg>