<svg xmlns="http://www.w3.org/2000/svg" xmlns:svg="http://www.w3.org/2000/svg" id="svg4016" width="24" height="24" version="1.1" viewBox="0 0 24 24"><metadata id="metadata4022"/><linearGradient id="linearGradient3996" x1="-10" x2="-10" y1="15" y2="21" gradientUnits="userSpaceOnUse"><stop id="stop3992" offset="0" stop-color="#555753"/><stop id="stop3994" offset="1" stop-color="#555753" stop-opacity="0"/></linearGradient><g id="g4998"><ellipse id="path4032" cx="5.672" cy="14.813" fill="none" stroke="#8cbe8c" stroke-dasharray="none" stroke-miterlimit="4" stroke-opacity="1" stroke-width="2.552" rx="7.724" ry="4.724" transform="rotate(-22.793251)"/><path id="path4012" fill="#bebebe" stroke="#8c8c8c" stroke-width="1" d="M 5.7335306,12.017971 8.499257,10.85575 9.661478,13.621477 6.8957515,14.783698 Z"/><path id="path4012-3" fill="#bebebe" stroke="#8c8c8c" stroke-width="1" d="m 12.255866,9.3001243 2.765727,-1.1622216 1.16222,2.7657263 -2.765726,1.162221 z"/><path id="path4012-6" fill="#bebebe" stroke="#8c8c8c" stroke-width="1" d="M 6.915383,6.3403384 9.6811092,5.1781173 10.84333,7.9438443 8.0776042,9.1060653 Z"/><g id="g4004" transform="translate(33)"><rect id="rect3998" width="11" height="11" x="-20" y="13" fill="#c4a000" rx="2.011"/><path id="path4000" fill="#fcffff" d="m -15,14 v 2.0625 c -0.537663,0.111041 -1.024662,0.383291 -1.375,0.78125 l -1.78125,-1.03125 -0.5,0.875 1.78125,1.03125 C -16.957063,17.966182 -17,18.225145 -17,18.5 c 0,0.274855 0.04294,0.533818 0.125,0.78125 l -1.78125,1.03125 0.5,0.875 1.78125,-1.03125 c 0.352503,0.40042 0.832682,0.670182 1.375,0.78125 V 23 h 1 v -2.0625 c 0.537663,-0.111041 1.024662,-0.383291 1.375,-0.78125 l 1.78125,1.03125 0.5,-0.875 -1.78125,-1.03125 C -12.042937,19.033818 -12,18.774855 -12,18.5 c 0,-0.274855 -0.04294,-0.533818 -0.125,-0.78125 l 1.78125,-1.03125 -0.5,-0.875 -1.78125,1.03125 C -12.977503,16.44333 -13.457682,16.173568 -14,16.0625 V 14 Z m 0.5,3.5 c 0.552,0 1,0.448 1,1 0,0.552 -0.448,1 -1,1 -0.552,0 -1,-0.448 -1,-1 0,-0.552 0.448,-1 1,-1 z"/><path id="path4002" fill="#fcffff" fill-rule="evenodd" d="m -19,19 9,-0.0096 c 0,0 0,0 0,-2 C -10,14 -11,14 -14.5,14 c -3.5,0 -4.5,0 -4.5,3 0,2 0,2 0,2 z" opacity=".3"/></g></g></svg>