<svg xmlns="http://www.w3.org/2000/svg" width="24" height="24"><path fill="#e6e6e6" stroke="#6e97c4" d="M2.5 7.5h19v14h-19z"/><path fill="#bad9ec" stroke="#6e97c4" d="M2.5 2.5h19v5h-19z"/><path fill="none" stroke="#6e97c4" stroke-width="2" d="M5 5h4" overflow="visible"/><path fill="none" stroke="#6e97c4" stroke-width="2" d="M11 5h8"/><path fill="none" stroke="#6e97c4" d="M5 9.5h4" overflow="visible"/><path fill="none" stroke="#6e97c4" d="M11 9.5h8"/><path fill="none" stroke="#6e97c4" d="M5 12.5h4" overflow="visible"/><path fill="none" stroke="#6e97c4" d="M11 12.5h8"/><path fill="none" stroke="#6e97c4" d="M5 15.5h4" overflow="visible"/><path fill="none" stroke="#6e97c4" d="M11 15.5h8"/><path fill="none" stroke="#6e97c4" d="M5 18.5h4" overflow="visible"/><path fill="none" stroke="#6e97c4" d="M11 18.5h8"/><g transform="translate(30.287 .805)"><rect width="10" height="10" x="-16.287" y="13.195" fill="#d26464" rx="2.011" ry="2.011"/><path fill="#fcffff" fill-rule="evenodd" d="M-15.287 18.195h8v-2c0-2-.5-2-4-2s-4 0-4 2v2z" opacity=".3"/><path fill="#fff" fill-rule="evenodd" stroke="#fff" stroke-linecap="round" stroke-linejoin="round" stroke-width="2" d="M-13.409 20.316l4.243-4.242M-13.409 16.074l4.243 4.242" overflow="visible"/></g></svg>
