<svg xmlns="http://www.w3.org/2000/svg" xmlns:svg="http://www.w3.org/2000/svg" id="svg36" width="24" height="24" version="1.1" viewBox="0 0 24 24"><metadata id="metadata42"/><g id="g34" transform="translate(0 -8)"><g id="g16" opacity=".5" transform="matrix(0.77484054,0,0,1.0984051,8.2315746,-0.71333417)"><path id="path2" fill="#fff" fill-rule="evenodd" stroke="#5b5b5c" stroke-linejoin="round" d="m 6.5,27.5 v -15 h 7 l 4,4 v 11 z"/><path id="path4" fill="#f0f0f0" fill-rule="evenodd" stroke="#5b5b5c" stroke-linejoin="round" d="m 13.5,12.5 v 4 h 4 z"/><path id="path6" fill="none" stroke="#969696" d="m 8,17.5 h 6.5"/><path id="path8" fill="none" stroke="#969696" d="m 8,19.5 h 7.5"/><path id="path10" fill="none" stroke="#6a6a6a" d="m 8,21.5 h 5"/><path id="path12" fill="none" stroke="#969696" d="m 8,23.5 h 7"/><path id="path14" fill="none" stroke="#969696" d="m 8,25.5 h 7"/></g><g id="g32" transform="matrix(0.75888502,0,0,1.1002515,-2.5133999,-0.71689563)"><path id="path18" fill="#fff" fill-rule="evenodd" stroke="#5b5b5c" stroke-linejoin="round" d="m 6.5,27.5 v -15 h 7 l 4,4 v 11 z"/><path id="path20" fill="#f0f0f0" fill-rule="evenodd" stroke="#5b5b5c" stroke-linejoin="round" d="m 13.5,12.5 v 4 h 4 z"/><path id="path22" fill="none" stroke="#969696" d="m 8,17.5 h 6.5"/><path id="path24" fill="none" stroke="#969696" d="m 8,19.5 h 7.5"/><path id="path26" fill="none" stroke="#969696" d="m 8,21.5 h 5"/><path id="path28" fill="none" stroke="#969696" d="m 8,23.5 h 7"/><path id="path30" fill="none" stroke="#969696" d="m 8,25.5 h 7"/></g><path id="path2-6" fill="#fce94f" fill-rule="evenodd" stroke="#a9b318" stroke-linecap="round" stroke-linejoin="round" stroke-width=".601" d="m 17.204281,23.413182 -2.805168,2.659955 0.0104,-1.788798 -4.7725306,-0.04077 0.010395,-1.789979 4.7725316,0.04077 0.01039,-1.788795 2.774022,2.707613 z"/></g></svg>
