<svg xmlns="http://www.w3.org/2000/svg" width="32" height="32"><path fill="#e6e6e6" stroke="#6e97c4" d="m.5 8.13h29v21.4h-29z"/><path fill="#bad9ec" stroke="#6e97c4" d="m.5.5h29v8h-29z"/><path fill="none" stroke="#6e97c4" stroke-width="3" d="m4 4.5h6" overflow="visible"/><path fill="none" stroke="#6e97c4" stroke-width="3" d="m14 4.5h12"/><path fill="none" stroke="#6e97c4" stroke-width="2" d="m4 13h6" overflow="visible"/><path fill="none" stroke="#6e97c4" stroke-width="2" d="m14 13h12"/><path fill="none" stroke="#c00" stroke-width="2" d="m4 17h6" overflow="visible"/><path fill="none" stroke="#c00" stroke-width="2" d="m14 17h12"/><path fill="none" stroke="#6e97c4" stroke-width="2" d="m4 21h6" overflow="visible"/><path fill="none" stroke="#6e97c4" stroke-width="2" d="m14 21h12"/><path fill="none" stroke="#6e97c4" stroke-width="2" d="m4 25h6" overflow="visible"/><path fill="none" stroke="#6e97c4" stroke-width="2" d="m14 25h12"/><rect width="15" height="15" x="17" y="17" fill="#d26464" stroke-width="1.5" rx="3"/><path fill="#fff" stroke-width="1.5" d="m20 18c-1.11 0-2 .892-2 2v5h13v-5c0-1.11-.892-2-2-2z" opacity=".3"/><path fill="#fff" fill-rule="evenodd" stroke="#fff" stroke-linecap="round" stroke-linejoin="round" stroke-width="3" d="m21.5 27.5 5.96-5.96"/><path fill="#fff" fill-rule="evenodd" stroke="#fff" stroke-linecap="round" stroke-linejoin="round" stroke-width="3" d="m21.5 21.5 5.96 5.96"/></svg>