<svg xmlns="http://www.w3.org/2000/svg" xmlns:xlink="http://www.w3.org/1999/xlink" width="24" height="24"><linearGradient id="a" x1="3.654" x2="8.5" y1="12.927" y2="27.5" gradientUnits="userSpaceOnUse"><stop offset="0" stop-color="#ccf2a6"/><stop offset="1" stop-color="#8ae234"/></linearGradient><linearGradient id="b" x1="9.587" x2="12.5" y1="15.542" y2="27.5" gradientUnits="userSpaceOnUse"><stop offset="0" stop-color="#eeeeec"/><stop offset="1" stop-color="#c8c8c2"/></linearGradient><linearGradient id="c" x1="1.5" x2="22.5" y1="2.5" y2="2.5" gradientUnits="userSpaceOnUse"><stop offset="0" stop-color="#d3d7cf"/><stop offset=".4" stop-color="#d3d7cf" stop-opacity=".387"/><stop offset=".5" stop-color="#d3d7cf" stop-opacity="0"/><stop offset=".6" stop-color="#d3d7cf" stop-opacity=".392"/><stop offset="1" stop-color="#d3d7cf"/></linearGradient><linearGradient id="d" x1="1.5" x2="22.5" y1="1.5" y2="2.5" gradientUnits="userSpaceOnUse"><stop offset="0" stop-color="#555753"/><stop offset=".4" stop-color="#555753" stop-opacity=".392"/><stop offset=".5" stop-color="#555753" stop-opacity="0"/><stop offset=".6" stop-color="#555753" stop-opacity=".392"/><stop offset="1" stop-color="#555753"/></linearGradient><g stroke-linejoin="round"><path fill="url(#a)" stroke="#4e9a06" stroke-linecap="round" stroke-width=".75" d="m .5 30.5c3 0 1-21 3-21 7 0 8 21 20 21" transform="translate(0 -8)"/><path fill="url(#b)" stroke="#888a85" stroke-linecap="round" stroke-width=".75" d="m8.5 30.5c1.304348 0 .434784-21 1.304348-21 3.043478 0 3.47826 21 8.695652 21" transform="translate(0 -8)"/><path fill="url(#c)" fill-rule="evenodd" stroke="url(#d)" d="m5.25 14.46875l-4.9375 4.9375 4.9375 4.96875v-3.53125h9.25 4.25v3.53125l4.9375-4.96875-4.9375-4.9375v3.53125h-4.25-5-4.25z" transform="translate(0 -8)"/></g></svg>
