<svg xmlns="http://www.w3.org/2000/svg" xmlns:xlink="http://www.w3.org/1999/xlink" width="24" height="24"><defs><linearGradient id="a" x1="16.1" x2="10.9" y1="13" y2="9.09" gradientTransform="matrix(.476 0 0 .518 .336 -3.21)" gradientUnits="userSpaceOnUse"><stop offset="0" stop-color="#aec7e2"/><stop offset="1" stop-color="#eee"/></linearGradient><linearGradient id="b" x1="4.53" x2="4.46" y1="22.4" y2="25.1" gradientTransform="matrix(.719 0 0 2.45 .0312 -52.3)" gradientUnits="userSpaceOnUse"><stop offset="0" stop-color="#eee"/><stop offset="1" stop-color="#aec7e2"/></linearGradient></defs><path fill="#cfcfcf" d="m4.5 9h1.5v2h-1.5z"/><path fill="url(#b)" d="m1 1v10h2.5v-10z"/><path fill="url(#a)" d="m4.5 1v7h5.5v-7z"/><path fill="none" stroke="#5b5b5c" d="m7 8.5h15"/><path fill="none" stroke="#5b5b5c" d="m7 13.5h15"/><path fill="none" stroke="#5b5b5c" d="m7 18.5h15"/><circle cx="13" cy="8.5" r="1.5" fill="#f7aeae" fill-opacity=".996" fill-rule="evenodd" stroke="#a20404" overflow="visible"/><path fill="none" stroke="#5b5b5c" stroke-linecap="round" d="m22.5 7.01v15"/><path fill="none" stroke="#5b5b5c" stroke-linecap="round" d="m6.5 7.01v15"/><circle cx="15" cy="13.5" r="1.5" fill="#c5f7c5" fill-rule="evenodd" stroke="#619361" overflow="visible"/><circle cx="11" cy="13.5" r="1.5" fill="#c5f7c5" fill-rule="evenodd" stroke="#619361" overflow="visible"/><circle cx="11" cy="18.5" r="1.5" fill="#c2e0f4" fill-rule="evenodd" stroke="#3f5e71" overflow="visible"/><circle cx="15" cy="18.5" r="1.5" fill="#c2e0f4" fill-rule="evenodd" stroke="#3f5e71" overflow="visible"/><circle cx="19" cy="18.5" r="1.5" fill="#c2e0f4" fill-rule="evenodd" stroke="#3f5e71" overflow="visible"/><rect width="19" height="2" x="5" y="22" fill="#5b5b5c" stroke-width="0" paint-order="stroke markers fill" rx="0" ry="0"/><circle cx="19" cy="8.5" r="1.5" fill="#f7aeae" fill-opacity=".996" fill-rule="evenodd" stroke="#a20404" overflow="visible"/><path fill="none" stroke="#2b3b4d" d="m10.5 8v-7.5h-10v11h5.5"/><path stroke="#2b3b4d" d="m4 11v-10"/><path stroke="#2b3b4d" d="m1 8.5h5"/><path stroke="#2b3b4d" d="m4 8.5 6.5-8"/></svg>
