<svg xmlns="http://www.w3.org/2000/svg" width="24" height="24"><path fill="none" stroke="#2b3b4d" stroke-linecap="round" stroke-linejoin="round" stroke-width="1.5" d="M2.575 2.575l6.351 15.296 6.985-15.153 5.744-.022" overflow="visible"/><path fill="#eeeeec" fill-rule="evenodd" stroke="#2b3b4d" stroke-linecap="round" stroke-linejoin="round" d="M4.257 2.575a1.681 1.681 0 1 1-3.363 0 1.681 1.681 0 1 1 3.363 0zm6.372 14.495a1.681 1.681 0 1 1-3.363 0 1.681 1.681 0 1 1 3.363 0zm6.786-14.388a1.681 1.681 0 1 1-3.363 0 1.681 1.681 0 1 1 3.363 0zm5.921.014a1.681 1.681 0 1 1-3.363 0 1.681 1.681 0 1 1 3.363 0z" overflow="visible"/><g transform="translate(1.846 1.846) scale(.6923)"><rect width="13" height="13" x="19" y="19" fill="#5a8c5a" rx="2.615" ry="2.615"/><path fill="#fff" fill-rule="evenodd" stroke="#fff" stroke-linecap="round" stroke-linejoin="round" stroke-width="2.6" d="M21.6 25.5h7.8m-3.9 3.9v-7.8" overflow="visible"/><path fill="#fcffff" fill-rule="evenodd" d="M20.3 25.5h10.4v-2.6c0-2.6-.65-2.6-5.2-2.6s-5.2 0-5.2 2.6v2.6z" opacity=".3"/></g></svg>