<svg xmlns="http://www.w3.org/2000/svg" xmlns:svg="http://www.w3.org/2000/svg" id="svg20" width="16" height="16" version="1.1"><metadata id="metadata26"/><path id="path4" fill="#6d97c4" fill-rule="evenodd" stroke="#415a75" stroke-dasharray="none" stroke-linejoin="round" stroke-miterlimit="4" stroke-width="1" d="M 14.5,13.5 H 9.4999793 L 11.166653,11.833327 9.4999793,10.166653 11.166651,8.49998 12.833326,10.166653 14.499998,8.49998 Z"/><path id="path10" fill="#fcffff" fill-rule="evenodd" stroke-dasharray="none" stroke-miterlimit="4" stroke-width="1" d="m 6.0854127,4.570286 c 1.2542366,-1.881355 2.7858151,-2.1309826 3.76271,-1.2542367 0.9768953,0.8767459 -1.2542368,0.6271183 -2.5084734,1.881355 -1.2542366,1.2542366 0,3.7627099 -1.2542366,3.7627099 -1.2542366,0 -1.2542366,-2.5084733 0,-4.3898282 z" opacity=".7"/><path id="path14" fill="#6d97c4" fill-rule="evenodd" stroke="#415a75" stroke-dasharray="none" stroke-linejoin="round" stroke-miterlimit="4" stroke-width="1" d="M 14.5,1.5000002 V 6.5000209 L 12.833326,4.8333456 11.166652,6.5000209 9.4999793,4.8333468 11.166652,3.1666741 9.4999793,1.5000006 Z"/><path id="path16" fill="#6d97c4" fill-rule="evenodd" stroke="#415a75" stroke-dasharray="none" stroke-linejoin="round" stroke-miterlimit="4" stroke-width="1" d="M 2.5,1.5000002 H 7.5000208 L 5.8333464,3.1666739 7.5000208,4.8333475 5.833347,6.500021 4.1666735,4.8333475 2.5000002,6.500021 Z"/><path id="path14-3" fill="#6d97c4" fill-rule="evenodd" stroke="#415a75" stroke-dasharray="none" stroke-linejoin="round" stroke-miterlimit="4" stroke-width="1" d="M 2.5,14.499999 V 9.4999798 l 1.6666739,1.6666742 1.6666728,-1.6666742 1.6666739,1.6666732 -1.6666739,1.666672 1.6666739,1.666673 z"/><path id="path2" fill="none" stroke="#888a85" stroke-linecap="square" stroke-linejoin="round" stroke-width="3" d="M 3.3724264,8.3336432 C 3.4582294,5.7125241 4.0588308,4.5258991 6.135095,4.6857259 8.2111253,4.8451683 8.67798,6.1128125 8.5917932,8.7341416"/><path id="path4-6" fill="none" stroke="#eeeeec" stroke-linecap="square" stroke-linejoin="round" stroke-width="1" d="M 3.3712993,8.3336432 C 3.4560835,5.6317535 4.0495536,4.3772911 6.1011648,4.542043 8.152545,4.7063986 8.6138563,6.0443769 8.528693,8.7464831"/><rect id="rect6" width="9" height="6" x="1.5" y="8.5" fill="#f1db1e" stroke="#c4a000" stroke-linecap="square" stroke-width="1" rx=".692" ry=".857"/></svg>