<svg xmlns="http://www.w3.org/2000/svg" width="24" height="24"><path fill="none" stroke="#749fcf" stroke-width=".752" d="M12 .784c7.116 3.533 6.1 16.778 0 19.427M.818 10.498h22.364M2.19 5.186c5.693.76 13.825.76 19.518 0M2.19 15.809c5.693-.759 13.825-.759 19.518 0M12 .784c-6.1 2.65-7.116 15.895 0 19.427"/><path fill="none" stroke="#5488c4" stroke-width="1.284" d="M6.966 13.81c0 6.713-5.423 12.156-12.113 12.156-6.69 0-12.112-5.443-12.112-12.157S-11.836 1.653-5.147 1.653c6.69 0 12.113 5.442 12.113 12.156z" transform="matrix(.94419 0 0 .81716 16.86 -.787)"/><path fill="none" stroke="#2b3b4d" stroke-linecap="round" stroke-linejoin="round" stroke-width=".976" d="M5.491 5.445L9.885 16.53l4.831-10.982 3.973-.016" overflow="visible"/><path fill="#fff" fill-rule="evenodd" stroke="#2b3b4d" stroke-linecap="round" stroke-linejoin="round" stroke-width=".947" d="M4.5 12.5a1 1 0 1 1-2 0 1 1 0 0 1 2 0z" overflow="visible" transform="matrix(1.16314 0 0 1.21859 1.42 -9.788)"/><path fill="#fff" fill-rule="evenodd" stroke="#2b3b4d" stroke-linecap="round" stroke-linejoin="round" stroke-width=".936" d="M4.5 12.5a1 1 0 1 1-2 0 1 1 0 0 1 2 0z" overflow="visible" transform="matrix(1.19051 0 0 1.21859 5.718 1.298)"/><path fill="#fff" fill-rule="evenodd" stroke="#2b3b4d" stroke-linecap="round" stroke-linejoin="round" stroke-width=".947" d="M4.5 12.5a1 1 0 1 1-2 0 1 1 0 0 1 2 0z" overflow="visible" transform="matrix(1.16314 0 0 1.21859 10.522 -9.71)"/><path fill="#fff" fill-rule="evenodd" stroke="#2b3b4d" stroke-linecap="round" stroke-linejoin="round" stroke-width=".947" d="M4.5 12.5a1 1 0 1 1-2 0 1 1 0 0 1 2 0z" overflow="visible" transform="matrix(1.16314 0 0 1.21859 14.618 -9.7)"/><g transform="matrix(.6923 0 0 .6923 1.846 1.846)"><rect width="13" height="13" x="19" y="19" fill="#5a8c5a" rx="2.615" ry="2.615"/><path fill="#fff" fill-rule="evenodd" stroke="#fff" stroke-linecap="round" stroke-linejoin="round" stroke-width="2.6" d="M21.6 25.5h7.8M25.5 29.4v-7.8" overflow="visible"/><path fill="#fcffff" fill-rule="evenodd" d="M20.3 25.5h10.4v-2.6c0-2.6-.65-2.6-5.2-2.6s-5.2 0-5.2 2.6v2.6z" opacity=".3"/></g></svg>