<svg xmlns="http://www.w3.org/2000/svg" xmlns:svg="http://www.w3.org/2000/svg" id="svg348" width="24" height="24" version="1.1" viewBox="0 0 24 24"><metadata id="metadata354"/><defs id="defs352"><radialGradient id="a-3" cx="16.5" cy="-12.5" r="7" gradientTransform="matrix(0.71392723,1.0641605,-0.69302733,0.45911438,-10.291955,4.6155606)" gradientUnits="userSpaceOnUse"><stop id="stop329-6" offset="0" stop-color="#bed1e5"/><stop id="stop331-7" offset="1" stop-color="#6d97c4"/></radialGradient></defs><radialGradient id="a" cx="16.5" cy="-12.5" r="7" gradientTransform="matrix(.71392723 1.0641605 -.69302733 .45911438 -10.291955 4.6155606)" gradientUnits="userSpaceOnUse"><stop id="stop329" offset="0" stop-color="#bed1e5"/><stop id="stop331" offset="1" stop-color="#6d97c4"/></radialGradient><g id="layer1" display="inline"><g id="g346" transform="translate(0,-8.0000003)"><path id="path334" fill="#eeeeec" fill-rule="evenodd" d="m 23.920726,22.589049 c 0,0 -1.892101,-0.277217 -2.871364,-1.366642 -0.626778,-0.697285 -3.678535,-3.947217 -5.453989,-4.650095 -2.962962,-1.172997 -5.321805,-1.134553 -7.5695483,-0.546833 -2.09114,0.546775 -3.530204,1.337547 -4.903697,2.645046 -0.639528,0.608801 -1.518255,2.273176 -1.505979,2.551883 -0.01888,0.230131 1.214539,2.152487 2.867438,3.325547 1.508743,1.070752 3.592552,2.336622 5.9029663,2.73289 2.79582,0.479522 3.821514,0.379776 6.481198,-0.469869 1.39945,-0.447059 3.888123,-2.570867 3.888123,-2.570867 0,0 0.521038,-0.348323 1.332925,-0.951893 0.700164,-0.520511 1.831927,-0.699167 1.831927,-0.699167 z"/><path id="path336" fill="url(#a-3)" stroke="#415a75" stroke-linecap="round" stroke-linejoin="round" d="m 10.703793,15.636921 c -0.7881923,0.02907 -1.0668593,0.04567 -1.9065573,0.207793 -0.480734,0.09555 -1.032406,0.24279 -1.259721,0.314658 -0.82902,0.985202 -1.232344,2.302381 -1.232555,3.586626 3.34e-4,3.02468 2.467746,5.476585 5.5115563,5.476917 3.043809,-3.33e-4 5.511221,-2.452237 5.511555,-5.476917 -0.0019,-0.802706 0.04206,-1.574914 -0.302154,-2.301101 -0.523643,-0.400667 -1.160508,-0.754077 -1.584197,-0.91776 -1.870192,-0.722509 -3.334895,-0.941964 -4.737927,-0.890216 z"/><ellipse id="ellipse338" cx="11.817" cy="19.659" rx="2.226" ry="2.212"/><path id="path340" fill="none" stroke="#888a85" stroke-width="1" d="m 1.1431106,15.424331 c 5.0059781,-1.495379 8.5535321,-2.062068 10.9931454,-2.285946 5.222126,-0.479224 7.062158,0.400175 8.402611,1.388166 1.448462,1.0676 1.763071,1.760039 1.763071,1.760039"/><path id="path342" fill="none" stroke="#888a85" stroke-width="1" d="m 23.920726,22.589049 c 0,0 -1.892101,-0.277217 -2.871364,-1.366642 -0.626778,-0.697285 -3.678535,-3.947217 -5.453989,-4.650095 -2.962962,-1.172997 -5.321805,-1.134553 -7.5695483,-0.546833 -2.09114,0.546775 -3.530204,1.337547 -4.903697,2.645046 -0.639528,0.608801 -1.518255,2.273177 -1.505979,2.551883 -0.01888,0.230131 1.214539,2.152488 2.867438,3.325547 1.508743,1.070753 3.592552,2.336622 5.9029663,2.73289 2.79582,0.479522 3.821514,0.379776 6.481198,-0.469869 1.39945,-0.447059 3.888123,-2.570867 3.888123,-2.570867 0,0 0.521038,-0.348323 1.332925,-0.951893 0.700164,-0.520511 1.831927,-0.699167 1.831927,-0.699167 z"/><ellipse id="ellipse344" cx="11.17" cy="18.742" fill="#eeeeec" rx=".891" ry=".885"/></g></g><g id="layer2" display="inline"><path id="path313" fill="#eeeeec" fill-rule="evenodd" d="M 11.84375 5.0742188 C 9.989699 5.3437363 8.2674513 5.727068 7.2753906 5.9003906 C 2.1834885 6.7899956 2.3362202 7.3610749 1.8105469 8.7324219 C 1.4157702 9.7622929 1.6029584 12.943949 1.6152344 13.222656 C 1.5963544 13.452787 2.831476 15.375768 4.484375 16.548828 C 5.993118 17.61958 8.0763045 18.884982 10.386719 19.28125 C 10.946807 19.377313 11.398372 19.432272 11.84375 19.480469 L 11.84375 5.0742188 z"/><path id="path315" fill="none" stroke="#888a85" stroke-width="1" d="m 1.1431106,7.4243307 c 5.0059781,-1.495379 8.5535321,-2.062068 10.9931454,-2.285946 5.222126,-0.479224 7.062158,0.400175 8.402611,1.388166 1.448462,1.0676 1.763071,1.760039 1.763071,1.760039"/><path id="path317" fill="none" stroke="#888a85" stroke-width="1" d="m 23.514476,14.589049 c -0.0074,-1.621158 -1.489833,-0.70922 -2.121364,-0.366642 -1.345528,0.583965 -4.05405,3.175877 -5.922739,3.568655 -2.150462,0.452003 -4.650818,0.144881 -6.7882983,-0.765583 -2.09114,-0.890725 -3.6035308,-2.157143 -5.122447,-3.292454 -0.983278,-0.734949 -1.955755,-0.414323 -1.943479,-0.135617 -0.01888,0.230131 1.214539,1.777488 2.867438,2.950547 1.508743,1.070753 3.592552,2.336622 5.9029663,2.73289 2.79582,0.479522 3.821514,0.379776 6.481198,-0.469869 1.39945,-0.447059 3.888123,-2.570867 3.888123,-2.570867 0,0 0.521038,-0.348323 1.332925,-0.951893 0.700164,-0.520511 1.425677,-0.699167 1.425677,-0.699167 z"/></g><g id="layer3" display="inline"><path id="path1294" fill="#5a8c5a" fill-opacity="1" fill-rule="nonzero" stroke="none" stroke-dasharray="none" stroke-dashoffset="0" stroke-linecap="butt" stroke-linejoin="miter" stroke-miterlimit="4" stroke-opacity="1" stroke-width=".997" d="m 10,1 v 22 h 1.998047 V 1 Z" baseline-shift="baseline" clip-rule="nonzero" color="#000" color-interpolation="sRGB" color-interpolation-filters="linearRGB" color-rendering="auto" direction="ltr" display="inline" dominant-baseline="auto" enable-background="accumulate" font-family="sans-serif" font-size="medium" font-stretch="normal" font-style="normal" font-variant="normal" font-weight="normal" image-rendering="auto" letter-spacing="normal" opacity="1" overflow="visible" shape-rendering="auto" text-anchor="start" text-decoration="none" text-rendering="auto" vector-effect="none" visibility="visible" word-spacing="normal" writing-mode="lr-tb" style="line-height:normal;font-variant-ligatures:normal;font-variant-position:normal;font-variant-caps:normal;font-variant-numeric:normal;font-variant-alternates:normal;font-feature-settings:normal;text-indent:0;text-align:start;text-decoration-line:none;text-decoration-style:solid;text-decoration-color:#000;text-transform:none;text-orientation:mixed;white-space:normal;shape-padding:0;isolation:auto;mix-blend-mode:normal;solid-color:#000;solid-opacity:1"/></g></svg>