<svg xmlns="http://www.w3.org/2000/svg" width="24" height="24" enable-background="new 0 0 24 24" viewBox="0 0 24 24"><g><path fill="#fce94f" stroke="#c4a000" stroke-linecap="round" stroke-width="1.077" d="m2.5384614 10.538462h12.923078v12.923077h-12.923078z" overflow="visible" transform="translate(0 -8)"/><g transform="translate(0 -8) translate(-.00000002 8.0000001)"><path fill="#c00" stroke="#c00" stroke-linecap="square" stroke-linejoin="round" d="m14.357 13.5h8.285c.474 0 .857.384.857.857v8.285c0 .474-.384.857-.857.857h-8.285c-.474 0-.857-.384-.857-.857v-8.285c0-.473.384-.857.857-.857z" opacity=".9"/><path fill="#fcffff" d="m13.5 18.5h10v-3.334c0-1.666 0-1.666-2.5-1.666-.582 0-5.061 0-5.834 0-1.666 0-1.666 0-1.666 1.666 0 .834 0 1.668 0 3.334z" opacity=".5"/><path fill="none" stroke="#eeeeec" stroke-linecap="round" stroke-width="1.5" d="m16.373 20.65l4.254-4.301"/><circle cx="18.5" cy="18.5" r="4.156" fill="none" stroke="#eeeeec" stroke-linecap="round" stroke-width="1.688"/></g></g></svg>