<svg xmlns="http://www.w3.org/2000/svg" xmlns:svg="http://www.w3.org/2000/svg" xmlns:xlink="http://www.w3.org/1999/xlink" id="svg12556" width="24" height="24" version="1.1"><metadata id="metadata12562"/><linearGradient id="b"><stop id="stop12494" offset="0" stop-color="#fff"/><stop id="stop12496" offset="1" stop-color="#fff" stop-opacity="0"/></linearGradient><linearGradient id="a"><stop id="stop12499" offset="0" stop-color="#3465a4"/><stop id="stop12501" offset="1" stop-color="#3465a4"/></linearGradient><linearGradient id="g" x1="16.431" x2="18.865" y1="17.169" y2="13.958" gradientUnits="userSpaceOnUse"><stop id="stop12504" offset="0" stop-color="#c4d7eb"/><stop id="stop12506" offset="1" stop-color="#c4d7eb" stop-opacity="0"/></linearGradient><linearGradient id="h" x1="18.642" x2="18.865" y1="17.554" y2="13.958" gradientUnits="userSpaceOnUse"><stop id="stop12509" offset="0" stop-color="#2b5b95"/><stop id="stop12511" offset="1" stop-color="#5c8fce" stop-opacity="0"/></linearGradient><linearGradient id="c" x1="6.262" x2="7.318" y1="5.295" y2="9.918" gradientUnits="userSpaceOnUse"><stop id="stop12514" offset="0" stop-color="#264976"/><stop id="stop12516" offset=".333" stop-color="#3f689d"/><stop id="stop12518" offset="1" stop-color="#5689ca" stop-opacity="0"/></linearGradient><linearGradient id="d" x1="37.128" x2="37.065" y1="29.73" y2="26.194" gradientTransform="matrix(-0.54367,0,0,-0.54367,24.52,24.602)" gradientUnits="userSpaceOnUse"><stop id="stop12521" offset="0" stop-color="#3465a4"/><stop id="stop12523" offset="1" stop-color="#3465a4" stop-opacity="0"/></linearGradient><linearGradient id="e" x1="62.514" x2="15.985" y1="36.061" y2="20.609" gradientTransform="matrix(-0.31481,-0.26598,-0.26598,0.31481,29.403,6.676)" gradientUnits="userSpaceOnUse"><stop id="stop12526" offset="0" stop-color="#8cb0d8"/><stop id="stop12528" offset="1" stop-color="#4580bf"/></linearGradient><linearGradient id="f" x1="46.835" x2="45.38" y1="45.264" y2="50.94" gradientTransform="matrix(-0.31481,-0.26598,-0.26598,0.31481,29.403,6.676)" gradientUnits="userSpaceOnUse" xlink:href="#a"/><linearGradient id="l" x1="5.965" x2="52.854" y1="26.048" y2="26.048" gradientTransform="matrix(-0.27647,-0.23359,-0.23359,0.27647,27.523,6.943)" gradientUnits="userSpaceOnUse" xlink:href="#b"/><linearGradient id="i" x1="18.936" x2="53.589" y1="23.668" y2="26.649" gradientTransform="matrix(.31481 .26598 .26598 -.31481 -5.625 17.054)" gradientUnits="userSpaceOnUse"><stop id="stop12533" offset="0" stop-color="#4580bf"/><stop id="stop12535" offset="1" stop-color="#376da5"/></linearGradient><linearGradient id="j" x1="46.835" x2="45.38" y1="45.264" y2="50.94" gradientTransform="matrix(.31481 .26598 .26598 -.31481 -5.625 17.054)" gradientUnits="userSpaceOnUse" xlink:href="#a"/><linearGradient id="k" x1="5.965" x2="52.854" y1="26.048" y2="26.048" gradientUnits="userSpaceOnUse" xlink:href="#b"/><g id="g16284" transform="matrix(0,-0.77921563,-1.4862569,0,21.809581,20.091742)"><path id="path12542" fill="url(#e)" stroke="url(#f)" stroke-width=".544" d="M 2.095,10.705 C 0.098,1.243 10.201,-2.311 19.007,4.636 l 2.596,-2.85 -0.052,9.315 -8.134,-0.008 2.707,-3.044 C 9.931,3.355 1.998,3.707 2.094,10.705 Z" display="block" overflow="visible"/><g id="g16276"><g id="g16270"><path id="path12540" fill="url(#c)" stroke="url(#d)" stroke-width=".544" d="m 9.638,5.336 c 0,0 -4.859,-0.34 -3.364,5.369 h -4.18 c 0,0 0.273,-6.456 7.544,-5.369 z" display="block" overflow="visible"/><path id="path12552" fill="none" stroke="url(#l)" stroke-width=".544" d="M 2.451,7.797 C 3.485,1.459 11.611,-0.61 19.276,5.695 l 1.953,-2.15 0.014,7.275 -6.383,0.002 2.258,-2.571 C 11.985,4.094 4.95,3.146 2.451,7.797 Z" display="block" opacity=".5" overflow="visible"/><path id="path12554" fill="#fff" d="M 2.385,8.647 C 4.339,2.971 11.325,5.307 13.361,6.201 15.631,6.316 16.446,4.66 18.254,4.57 10.615,-0.753 2.589,1.036 2.385,8.647 Z" opacity=".272" overflow="visible"/></g></g></g></svg>
