<svg xmlns="http://www.w3.org/2000/svg" width="24" height="24" viewBox="0 0 24 24"><linearGradient x1="50.5" x2="50.5" y1="17" y2="23" gradientUnits="userSpaceOnUse"><stop offset="0" stop-color="#555753"/><stop offset="1" stop-color="#555753" stop-opacity="0"/></linearGradient><g transform="translate(0 -8)"><rect width="6.667" height="6.667" x="1.667" y="15.667" fill="#72b072" stroke="#383838" stroke-linecap="round" stroke-opacity=".933" stroke-width="1.333" rx="4.167"/><rect width="6.667" height="6.667" x="10.412" y="9.7" fill="#a6cca6" stroke="#5f615f" stroke-linecap="round" stroke-opacity=".957" stroke-width="1.333" rx="4.167"/><g transform="translate(-27.5 6.0000005)"><rect width="11" height="11" x="40.5" y="15" fill="#3c5a6e" rx="2.011"/><path fill="#fcffff" fill-rule="evenodd" d="m41.500001 20.999999l8.999999-.009599c0 0 0 0 0-2 0-2.990401-1-2.990401-4.5-2.990401-3.5 0-4.5 0-4.5 3 0 2 0 2 .000001 2z" opacity=".3"/><path fill="#fff" fill-rule="evenodd" d="m45.5 15.999999v3.000001h-4v3h4v2.999999l5-4z"/></g></g></svg>
