<svg xmlns="http://www.w3.org/2000/svg" width="24" height="24" viewBox="0 0 24 24"><linearGradient x1="-10" x2="-10" y1="15" y2="21" gradientUnits="userSpaceOnUse"><stop offset="0" stop-color="#555753"/><stop offset="1" stop-color="#555753" stop-opacity="0"/></linearGradient><g transform="translate(0 -8)"><g transform="translate(33 8)"><rect width="11" height="11" x="-20" y="13" fill="#c4a000" rx="2.011"/><path fill="#fcffff" d="m-15 14v2.0625c-.537663.111041-1.024662.383291-1.375.78125l-1.78125-1.03125-.5.875 1.78125 1.03125c-.082063.247432-.125.506395-.125.78125 0 .274855.04294.533818.125.78125l-1.78125 1.03125.5.875 1.78125-1.03125c.352503.40042.832682.670182 1.375.78125v2.0625h1v-2.0625c.537663-.111041 1.024662-.383291 1.375-.78125l1.78125 1.03125.5-.875-1.78125-1.03125c.082063-.247432.125-.506395.125-.78125 0-.274855-.04294-.533818-.125-.78125l1.78125-1.03125-.5-.875-1.78125 1.03125c-.352503-.40042-.832682-.670182-1.375-.78125v-2.0625zm.5 3.5c.552 0 1 .448 1 1 0 .552-.448 1-1 1-.552 0-1-.448-1-1 0-.552.448-1 1-1z"/><path fill="#fcffff" fill-rule="evenodd" d="m-19 19l9-.0096c0 0 0 0 0-2 0-2.9904-1-2.9904-4.5-2.9904-3.5 0-4.5 0-4.5 3 0 2 0 2 0 2z" opacity=".3"/></g><rect width="5" height="5" x="1.5" y="17.5" fill="#8cbe8c" stroke="#4c4d4c" stroke-linecap="round" stroke-opacity=".933" stroke-width="1" rx="3.125"/><rect width="5" height="5" x="8.5" y="9.5" fill="#8cbe8c" stroke="#4b4c4b" stroke-linecap="round" stroke-opacity=".957" stroke-width="1" rx="3.125"/><rect width="5" height="5" x="17.5" y="11.5" fill="#8cbe8c" stroke="#4c4d4c" stroke-linecap="round" stroke-opacity=".933" stroke-width="1" rx="3.125"/></g></svg>