<svg xmlns="http://www.w3.org/2000/svg" xmlns:xlink="http://www.w3.org/1999/xlink" width="24" height="24"><title>label</title><defs><linearGradient id="a" x1="16.5" x2="12.5" y1="22.5" y2="16.5" gradientUnits="userSpaceOnUse"><stop offset="0" stop-color="#edd400"/><stop offset="1" stop-color="#fff17a"/></linearGradient></defs><g><path fill="url(#a)" fill-rule="evenodd" stroke="#c4a000" stroke-linecap="round" stroke-linejoin="round" stroke-width="1" d="m.5 17.5 4-5h16v10h-16l-4-5z" enable-background="new" transform="translate(0,-8)"/><text x="4.187" y="20.293" fill="#2e3436" font-family="FreeSans" font-weight="bold" letter-spacing="0" transform="translate(0,-8)" word-spacing="0" xml:space="preserve" style="line-height:0%"><tspan x="4.187" y="20.293" font-size="8" style="line-height:1">abc</tspan></text><g transform="translate(0,-8) translate(-27.5 6)"><rect width="11" height="11" x="40.5" y="15" fill="#3c5a6e" stroke-width="0" enable-background="new" rx="2.01" ry="2.01"/><path fill="#fcffff" fill-rule="evenodd" d="m41.5 21 9-.0096v-2c0-2.99-1-2.99-4.5-2.99s-4.5 0-4.5 3c0 2 0 2 1e-6 2z" enable-background="new" opacity=".3"/><path fill="#fff" fill-rule="evenodd" d="m45.5 16v3h-4v3h4v3l5-4z"/></g></g></svg>