<svg xmlns="http://www.w3.org/2000/svg" width="24" height="24"><path fill="#e6e6e6" stroke="#6e97c4" d="M2.5 7.5h19v14h-19z"/><path fill="#bad9ec" stroke="#6e97c4" d="M2.5 2.5h19v5h-19z"/><path fill="none" stroke="#6e97c4" stroke-width="2" d="M5 5h4" overflow="visible"/><path fill="none" stroke="#6e97c4" stroke-width="2" d="M11 5h8"/><path fill="none" stroke="#6e97c4" d="M5 9.5h4" overflow="visible"/><path fill="none" stroke="#6e97c4" d="M11 9.5h8"/><path fill="none" stroke="#6e97c4" d="M5 12.5h4" overflow="visible"/><path fill="none" stroke="#6e97c4" d="M11 12.5h8"/><path fill="none" stroke="#6e97c4" d="M5 15.5h4" overflow="visible"/><path fill="none" stroke="#6e97c4" d="M11 15.5h8"/><path fill="none" stroke="#6e97c4" d="M5 18.5h4" overflow="visible"/><path fill="none" stroke="#6e97c4" d="M11 18.5h8"/><g stroke-width=".9" transform="translate(-.615 -.615) scale(.76923)"><rect width="13" height="13" x="19" y="19" fill="#5a8c5a" rx="2.353" ry="2.353"/><path fill="#fff" fill-rule="evenodd" stroke="#fff" stroke-linecap="round" stroke-linejoin="round" stroke-width="2.34" d="M21.6 25.5h7.8M25.5 29.4v-7.8" overflow="visible"/><path fill="#fcffff" fill-rule="evenodd" d="M20.3 25.5h10.4v-2.6c0-2.6-.65-2.6-5.2-2.6s-5.2 0-5.2 2.6v2.6z" opacity=".3"/></g></svg>