<svg xmlns="http://www.w3.org/2000/svg" width="24" height="24"><path fill="#e6e6e6" stroke="#505050" stroke-dashoffset="7" stroke-linecap="round" stroke-linejoin="round" stroke-width=".752" d="M17.961 7A5.961 6.074 0 0 1 12 13.074 5.961 6.074 0 0 1 6.039 7 5.961 6.074 0 0 1 12 .926 5.961 6.074 0 0 1 17.961 7z" opacity=".8" transform="matrix(1.40036 0 0 1.3742 -1.674 -.75)"/><path fill="#ffcc30" fill-rule="evenodd" stroke="#505050" stroke-linejoin="round" stroke-width="1.043" d="M7.826 14.088c0 2.086 2.087 2.086 2.087 2.086l-7.304 7.304-2.087-2.087z"/><path fill-rule="evenodd" stroke="#505050" stroke-linejoin="round" stroke-width="1.043" d="M6.26 15.653l2.088-2.087 2.087 2.087-2.087 2.087z"/><path fill="#fcffff" fill-rule="evenodd" d="M10.435 4.175c2.087-3.13 4.635-3.545 6.26-2.087 1.626 1.46-2.086 1.044-4.173 3.13-2.087 2.088 0 6.261-2.087 6.261s-2.087-4.173 0-7.304z" opacity=".7"/><path stroke="#fcffff" stroke-linecap="round" stroke-linejoin="round" stroke-width="1.043" d="M2.087 20.87l4.174-4.174" opacity=".5" overflow="visible"/></svg>
