<svg xmlns="http://www.w3.org/2000/svg" width="24" height="24"><filter id="a" width="1.5" height="1.5" x="-.25" y="-.25"><feGaussianBlur in="SourceAlpha" result="blur" stdDeviation="2"/><feColorMatrix result="bluralpha" values="1 0 0 0 0 0 1 0 0 0 0 0 1 0 0 0 0 0 0.351000 0"/><feOffset dx="7.5" dy="7.5" in="bluralpha" result="offsetBlur"/><feMerge><feMergeNode in="offsetBlur"/><feMergeNode in="SourceGraphic"/></feMerge></filter><rect width="19.2" height="20.5" x="2.4" y="1.4" fill="#6d97c4" fill-rule="evenodd" stroke="#415a75" stroke-linecap="round" stroke-linejoin="round" stroke-width=".8" overflow="visible" rx="1.889" ry="1.5"/><rect width="14" height="9" x="5" y="2" fill="#ededed" fill-rule="evenodd" stroke="#666" stroke-linecap="round" stroke-linejoin="round" stroke-width=".5" overflow="visible" rx=".5" ry=".5"/><path fill="none" stroke="#666" stroke-linecap="round" d="M7 4.5h10"/><path fill="#ededed" fill-rule="evenodd" stroke="#666" stroke-linecap="round" stroke-linejoin="round" stroke-width=".6" d="M6.01 14.517H18V21.5H6.01z" overflow="visible"/><path fill="#415a75" fill-rule="evenodd" stroke="#e6e6e6" stroke-linecap="round" stroke-linejoin="round" stroke-width=".996" d="M7.009 15.41h3.993v4.969H7.009z" overflow="visible"/><g transform="translate(-.615 -.615) scale(.76923)"><rect width="13" height="13" x="19" y="19" fill="#5a8c5a" rx="2.615" ry="2.615"/><path fill="#fcffff" fill-rule="evenodd" d="M20.3 25.5h10.4v-2.6c0-2.6-.65-2.6-5.2-2.6s-5.2 0-5.2 2.6v2.6z" opacity=".3"/><path fill="#fff" fill-rule="evenodd" stroke="#fff" stroke-linecap="round" stroke-linejoin="round" stroke-width="2.871" d="M22.936 28.064l5.128-5.128" overflow="visible"/></g><path fill="none" stroke="#666" stroke-linecap="round" d="M7 6.5h10M7 8.5h10"/></svg>