<svg xmlns="http://www.w3.org/2000/svg" width="24" height="24" viewBox="0 0 24 24"><linearGradient x1="23" x2="23" y1="23" y2="29" gradientUnits="userSpaceOnUse"><stop offset="0" stop-color="#555753"/><stop offset="1" stop-color="#555753" stop-opacity="0"/></linearGradient><g transform="translate(0 -8)"><path fill="#8cbe8c" fill-rule="evenodd" stroke="#555753" stroke-linecap="round" stroke-linejoin="round" stroke-width="1" d="m8.0275933 9.5013891c-2.8183472.0466368-5.2878242 1.2552559-6.2839838 4.1947259-.98846785 2.916771 1.1714865 8.182008 5.9325763 5.840503 7.9077412-3.889027 7.9038032.963382 9.8807382.963382 2.438571 0 4.94037-1.699566 4.94037-3.873599 0-1.944514.09638-3.806388-.992208-4.87712-1.976935-1.944514-2.973677.987396-8.289071-1.184158-1.694017-.6920746-3.4974127-1.0917169-5.1884217-1.0637339z"/><rect width="11" height="11" x="13" y="21" fill="#3c5a6e" rx="2.011"/><path fill="#fcffff" fill-rule="evenodd" d="m14.000001 26.999999l8.999999-.009599c0 0 0 0 0-2 0-2.9904-1-2.9904-4.5-2.9904-3.5 0-4.5 0-4.5 3 0 2 0 2 .000001 1.999999z" opacity=".3"/><path fill="none" stroke="#fff" stroke-linecap="square" stroke-width="1.5" d="m21.498844 26.2375c0-1.520773-1.240344-2.750705-2.999423-2.737371-1.898205-.01537-2.999421 1.247555-2.999421 2.999871 0 1.439852 1.50029 2.5 3 2.5"/><path fill="none" stroke="#fff" stroke-linecap="round" stroke-linejoin="round" stroke-width="1.5" d="m18.58077 27l1.5 2-1.5 2"/></g></svg>
