<svg xmlns="http://www.w3.org/2000/svg" xmlns:svg="http://www.w3.org/2000/svg" id="svg23" width="24" height="24" version="1.1"><metadata id="metadata29"/><linearGradient id="a" x1="3.5" x2="11.5" y1="19.5" y2="19.5" gradientTransform="translate(0,-8)" gradientUnits="userSpaceOnUse"><stop id="stop2" offset="0" stop-color="#b7b7b7"/><stop id="stop4" offset="1" stop-color="#e6e6e6"/></linearGradient><path id="path7" fill="url(#a)" fill-rule="evenodd" stroke="#9a9a9a" d="m 21.5,21.5 h -17 c -1,0 -1.977816,-1.420625 -2,-2.5 V 2.5 h 19 z"/><path id="path9" fill="#e6e6e6" fill-rule="evenodd" stroke="#9a9a9a" d="m 6.5,1.9999996 c -1,-0.9999995 -3,-0.9999995 -4,0 V 18 c 1,-1 3,-1 4,0 z"/><g id="g16" transform="translate(33)"><rect id="rect10" width="11" height="11" x="-20" y="13" fill="#c4a000" rx="2.011"/><path id="path12" fill="#fcffff" d="m -15,14 v 2.0625 c -0.537663,0.111041 -1.024662,0.383291 -1.375,0.78125 l -1.78125,-1.03125 -0.5,0.875 1.78125,1.03125 C -16.957063,17.966182 -17,18.225145 -17,18.5 c 0,0.274855 0.04294,0.533818 0.125,0.78125 l -1.78125,1.03125 0.5,0.875 1.78125,-1.03125 c 0.352503,0.40042 0.832682,0.670182 1.375,0.78125 V 23 h 1 v -2.0625 c 0.537663,-0.111041 1.024662,-0.383291 1.375,-0.78125 l 1.78125,1.03125 0.5,-0.875 -1.78125,-1.03125 C -12.042937,19.033818 -12,18.774855 -12,18.5 c 0,-0.274855 -0.04294,-0.533818 -0.125,-0.78125 l 1.78125,-1.03125 -0.5,-0.875 -1.78125,1.03125 C -12.977503,16.44333 -13.457682,16.173568 -14,16.0625 V 14 Z m 0.5,3.5 c 0.552,0 1,0.448 1,1 0,0.552 -0.448,1 -1,1 -0.552,0 -1,-0.448 -1,-1 0,-0.552 0.448,-1 1,-1 z"/><path id="path14" fill="#fcffff" fill-rule="evenodd" d="m -19,19 9,-0.0096 c 0,0 0,0 0,-2 C -10,14 -11,14 -14.5,14 c -3.5,0 -4.5,0 -4.5,3 0,2 0,2 0,2 z" opacity=".3"/></g></svg>
