<svg xmlns="http://www.w3.org/2000/svg" width="24" height="24"><path fill="#e6e6e6" stroke="#6e97c4" d="M2.5 7.5h19v14h-19z"/><path fill="#bad9ec" stroke="#6e97c4" d="M2.5 2.5h19v5h-19z"/><path fill="none" stroke="#6e97c4" stroke-width="2" d="M5 5h4" overflow="visible"/><path fill="none" stroke="#6e97c4" stroke-width="2" d="M11 5h8"/><path fill="none" stroke="#6e97c4" d="M5 9.5h4" overflow="visible"/><path fill="none" stroke="#6e97c4" d="M11 9.5h8"/><path fill="none" stroke="#6e97c4" d="M5 12.5h4" overflow="visible"/><path fill="none" stroke="#6e97c4" d="M11 12.5h8"/><path fill="none" stroke="#6e97c4" d="M5 15.5h4" overflow="visible"/><path fill="none" stroke="#6e97c4" d="M11 15.5h8"/><path fill="none" stroke="#6e97c4" d="M5 18.5h4" overflow="visible"/><path fill="none" stroke="#6e97c4" d="M11 18.5h8"/><g stroke-width="1.1" transform="matrix(.9091 0 0 .9091 32.182 2.182)"><rect width="11" height="11" x="-20" y="13" fill="#c4a000" rx="2.213" ry="2.213"/><path fill="#fcffff" d="M-15 14v2.063a2.501 2.501 0 0 0-1.375.78l-1.781-1.03-.5.874 1.781 1.032A2.46 2.46 0 0 0-17 18.5c0 .275.043.534.125.781l-1.781 1.032.5.875 1.781-1.032c.353.4.833.67 1.375.782V23h1v-2.063a2.501 2.501 0 0 0 1.375-.78l1.781 1.03.5-.875-1.781-1.03A2.46 2.46 0 0 0-12 18.5a2.46 2.46 0 0 0-.125-.781l1.781-1.032-.5-.875-1.781 1.032c-.353-.4-.833-.67-1.375-.782V14zm.5 3.5a1 1 0 1 1 0 2 1 1 0 0 1 0-2z"/><path fill="#fcffff" fill-rule="evenodd" d="M-19 19l9-.01v-2C-10 14-11 14-14.5 14s-4.5 0-4.5 3v2z" opacity=".3"/></g></svg>
