<svg xmlns="http://www.w3.org/2000/svg" width="16" height="16" viewBox="0 0 16 16"><path fill="#888a85" fill-rule="evenodd" d="m1 2v1h14v-1z" overflow="visible"/><path fill="#e8d74b" fill-rule="evenodd" stroke="#f7941d" stroke-dashoffset="2.2" stroke-width="1" d="m5.4998493 5.4998498h2.0003014v2.0003011h-2.0003014z" overflow="visible"/><path fill="#b2b2b2" fill-rule="evenodd" d="m2.0004925 3v11h1v-11z" overflow="visible"/><path fill="#b2b2b2" fill-rule="evenodd" d="m3 6.0000001v.9999999h2.0004917v-.9999999z" overflow="visible"/><path fill="#b2b2b2" fill-rule="evenodd" d="m3 12.000001v.999999h1.9999996v-.999999z" overflow="visible"/><path fill="#e8d74b" fill-rule="evenodd" stroke="#f7941d" stroke-dashoffset="2.2" stroke-width="1" d="m5.4998493 11.499849h2.0003014v2.0003011h-2.0003014z" overflow="visible"/><path fill="#6d97c4" fill-rule="evenodd" stroke="#415a75" stroke-linecap="round" stroke-linejoin="round" stroke-width="1.002" d="m10.994141 14.221653l-4.4394532-4.6874999h2.9589845v-8.0195316h2.9609367v8.0195316h2.958985z"/><path fill="#fffd00" fill-rule="evenodd" stroke="#fff" stroke-dashoffset="2.2" stroke-linecap="square" stroke-linejoin="round" stroke-miterlimit="10" stroke-width="3.239" d="m8.7337301 8.8337408l-2.8934215-.8495213-2.3394736 1.9036139-.0869431-3.0162732-2.53221151-1.6384617 2.83968671-1.0146384.7744806-2.9162394 1.8419666 2.3891927 3.010867-.1638732-1.7012891 2.4912409z" opacity=".838" overflow="visible"/><path fill="#fffd00" fill-rule="evenodd" stroke="#f8a70a" stroke-dashoffset="2.2" stroke-linecap="square" stroke-linejoin="round" stroke-miterlimit="10" stroke-width="1.045" d="m8.7337301 8.8337412l-2.8934215-.8495213-2.3394736 1.9036135-.0869431-3.0162727-2.53221151-1.6384618 2.83968671-1.0146384.7744806-2.9162394 1.8419666 2.3891927 3.010867-.1638732-1.7012891 2.491241z" overflow="visible"/></svg>
