<svg xmlns="http://www.w3.org/2000/svg" xmlns:xlink="http://www.w3.org/1999/xlink" width="24" height="24"><defs><linearGradient id="g"><stop offset="0" stop-color="#aec7e2"/><stop offset="1" stop-color="#6e97c4"/></linearGradient><linearGradient id="f"><stop offset="0" stop-color="#aec7e2"/><stop offset="1" stop-color="#6e97c4"/></linearGradient><linearGradient id="a"><stop offset="0" stop-color="#6e97c4"/><stop offset="1" stop-color="#aec7e2"/></linearGradient><linearGradient id="b"><stop offset="0" stop-color="#6e97c4"/><stop offset="1" stop-color="#aec7e2"/></linearGradient><linearGradient id="c"><stop offset="0" stop-color="#6e97c4"/><stop offset="1" stop-color="#aec7e2"/></linearGradient><linearGradient id="e"><stop offset="0" stop-color="#6e97c4"/><stop offset="1" stop-color="#aec7e2"/></linearGradient><linearGradient id="h"><stop offset="0" stop-color="#e7eff5"/><stop offset="1" stop-color="#6e97c4"/></linearGradient><linearGradient id="d"><stop offset="0" stop-color="#6e97c4"/><stop offset="1" stop-color="#e7eff5"/></linearGradient><linearGradient id="o" x1="7.373" x2="7.449" y1="10" y2="15" gradientUnits="userSpaceOnUse" xlink:href="#a"/><linearGradient id="n" x1="1.729" x2="7" y1="15.458" y2="15.458" gradientUnits="userSpaceOnUse" xlink:href="#b"/><linearGradient id="m" x1="1.729" x2="7" y1="15.458" y2="15.458" gradientUnits="userSpaceOnUse" xlink:href="#c"/><linearGradient id="l" x1="18" x2="16" y1="14.322" y2="13" gradientUnits="userSpaceOnUse" xlink:href="#e"/><linearGradient id="k" x1="18" x2="15.288" y1="14.322" y2="12" gradientUnits="userSpaceOnUse" xlink:href="#d"/><linearGradient id="i" x1="4.53" x2="4.458" y1="22.364" y2="25.133" gradientUnits="userSpaceOnUse" xlink:href="#f"/><linearGradient id="j" x1="4.53" x2="4.458" y1="22.364" y2="25.133" gradientUnits="userSpaceOnUse" xlink:href="#g"/><linearGradient id="q" x1="4.53" x2="4.458" y1="22.364" y2="25.133" gradientUnits="userSpaceOnUse" xlink:href="#h"/><linearGradient id="p" x1="4.53" x2="4.458" y1="22.364" y2="25.133" gradientUnits="userSpaceOnUse" xlink:href="#h"/></defs><path fill="url(#i)" d="M2 22v3.569h5V22z" transform="translate(0 -8)"/><path fill="url(#j)" d="M8 22v3.569h5V22z" transform="translate(0 -8)"/><path fill="url(#k)" d="M22 21V10l-8 11z" transform="translate(0 -8)"/><path fill="url(#l)" d="M14 10v11l8-11z" transform="translate(0 -8)"/><path fill="url(#m)" d="M13 21l-5.479-5.46L2 21z" transform="translate(0 -8)"/><path fill="url(#n)" d="M1.727 21l5.461-5.479L1.728 10z" transform="translate(0 -8)"/><path fill="url(#o)" d="M2 10l5.479 5.46L13 10z" transform="translate(0 -8)"/><g transform="translate(1.846 1.846) scale(.6923)"><rect width="13" height="13" x="19" y="19" fill="#5a8c5a" rx="2.615" ry="2.615"/><path fill="#fff" fill-rule="evenodd" stroke="#fff" stroke-linecap="round" stroke-linejoin="round" stroke-width="2.6" d="M21.6 25.5h7.8m-3.9 3.9v-7.8" overflow="visible"/><path fill="#fcffff" fill-rule="evenodd" d="M20.3 25.5h10.4v-2.6c0-2.6-.65-2.6-5.2-2.6s-5.2 0-5.2 2.6v2.6z" opacity=".3"/></g><path fill="none" stroke="#253e5b" stroke-linecap="round" d="M13 2L2 13M2 2l11 11M1.5 1.5h12v12h-12z"/><path fill="#aec7e2" d="M13.46 2L7.998 7.479 13.46 13z"/><path fill="none" stroke="#253e5b" stroke-linecap="round" d="M13.5 1.5h9v12h-9zm-12 12h12v9h-12zM22 2l-8 11m-6.5 1v8"/><path fill="url(#p)" d="M2 26.431V30h5v-3.569z" transform="translate(0 -8)"/><path fill="none" stroke="#253e5b" stroke-linecap="round" d="M13 18H2"/><path fill="url(#q)" d="M8 26.431V30h5v-3.569z" transform="translate(0 -8)"/></svg>
