<svg xmlns="http://www.w3.org/2000/svg" width="24" height="24"><path fill="#e6e6e6" stroke="#6e97c4" d="M2.5 7.5h19v14h-19z"/><path fill="#bad9ec" stroke="#6e97c4" d="M2.5 2.5h19v5h-19z"/><path fill="none" stroke="#6e97c4" stroke-width="2" d="M5 5h4" overflow="visible"/><path fill="none" stroke="#6e97c4" stroke-width="2" d="M11 5h8"/><path fill="none" stroke="#6e97c4" d="M5 9.5h4" overflow="visible"/><path fill="none" stroke="#6e97c4" d="M11 9.5h8"/><path fill="none" stroke="#6e97c4" d="M5 12.5h4" overflow="visible"/><path fill="none" stroke="#6e97c4" d="M11 12.5h8"/><path fill="none" stroke="#6e97c4" d="M5 15.5h4" overflow="visible"/><path fill="none" stroke="#6e97c4" d="M11 15.5h8"/><path fill="none" stroke="#6e97c4" d="M5 18.5h4" overflow="visible"/><path fill="none" stroke="#6e97c4" d="M11 18.5h8"/><g stroke-dashoffset=".5" stroke-linejoin="round" stroke-width="1.002"><path fill="#505050" stroke="#2a2a2a" stroke-linecap="round" stroke-width=".752" d="M-23.498 8.015l4.993 2.895-5.96 4.333z" overflow="visible" transform="matrix(1 0 0 .99552 29.84 7.45)"/><path fill="#fb7123" stroke="#474747" stroke-linecap="round" stroke-width=".752" d="M-15.33-6.189l4.993 2.895-8.168 14.204-4.993-2.895 8.168-14.204" overflow="visible" transform="matrix(1 0 0 .99552 29.84 7.45)"/><path fill="none" stroke="#fcffff" stroke-width="2.004" d="M-13.73-4.147l-7.207 12.533" opacity=".5" overflow="visible" transform="matrix(1 0 0 .99552 29.84 7.45)"/><path fill-opacity=".706" stroke="#000" stroke-width="2.004" d="M-12.066-3.183l-7.207 12.534" opacity=".363" overflow="visible" transform="matrix(1 0 0 .99552 29.84 7.45)"/><path fill="#969696" stroke="#969696" stroke-linecap="square" stroke-width=".501" d="M-23.195 13.985l4.038-3.168-1.662-.963-2.376 4.13z" overflow="visible" transform="matrix(1 0 0 .99552 29.84 7.45)"/><path fill="#e6e6e6" stroke="#969696" stroke-linecap="round" stroke-width=".501" d="M-14.986-7.232l5.377 3.117-1.047 1.82-5.377-3.117z" overflow="visible" transform="matrix(1 0 0 .99552 29.84 7.45)"/><path fill="#e6e6e6" stroke="#e6e6e6" stroke-linecap="square" stroke-width=".501" d="M-23.882 13.763l.79-5.226 1.662.963z" overflow="visible" transform="matrix(1 0 0 .99552 29.84 7.45)"/></g></svg>