<svg xmlns="http://www.w3.org/2000/svg" width="25.6" height="25.6"><g fill="none" transform="translate(3.40276 .767879)"><rect width="6.649" height="6.537" fill="#6e97c4" transform="translate(6.23337 1.0389)"/><rect width="6.649" height="6.537" fill="#2b3b4d" transform="translate(12.4668 1.0389)"/><rect width="6.649" height="6.537" fill="#2b3b4d" transform="translate(6.23337 7.16688)"/><rect width="6.649" height="6.537" fill="#6d97c4" transform="translate(12.4668 7.16688)"/><rect width="6.649" height="6.537" fill="#2d3e4d" transform="translate(0 1.0389)"/><rect width="6.649" height="6.537" fill="#6d97c4" transform="translate(0 7.16688)"/><rect width="6.649" height="6.537" fill="#6d97c4" transform="translate(6.23337 13.2949)"/><rect width="6.649" height="6.537" fill="#2b3b4d" transform="translate(0 13.2949)"/><rect width="6.649" height="6.537" fill="#2b3b4d" transform="translate(12.4628 13.291)"/><rect width="19.947" height="19.61" fill="none" stroke="#fff" stroke-linejoin="round" stroke-width="1.262" transform="translate(0 1.0389)"/></g><g fill="none" transform="translate(1.11531 2.38005)"><rect width="6.039" height="6.156" fill="#6e97c4" transform="translate(6.29247 2.73915)"/><rect width="6.039" height="6.156" fill="#2b3b4d" transform="translate(11.9537 2.73915)"/><rect width="6.039" height="6.156" fill="#2b3b4d" transform="translate(6.29247 8.51079)"/><rect width="6.039" height="6.156" fill="#6d97c4" transform="translate(11.9537 8.51079)"/><rect width="6.039" height="6.156" fill="#2d3e4d" transform="translate(.631241 2.73915)"/><rect width="6.039" height="6.156" fill="#6d97c4" transform="translate(.631241 8.51079)"/><rect width="6.039" height="6.156" fill="#6d97c4" transform="translate(6.29247 14.2824)"/><rect width="6.039" height="6.156" fill="#2b3b4d" transform="translate(.631241 14.2824)"/><rect width="6.039" height="6.156" fill="#2b3b4d" transform="translate(11.9501 14.2788)"/><rect width="18.116" height="18.469" fill="none" stroke="#fff" stroke-miterlimit="0" stroke-width="1.262" transform="translate(.631241 2.73915)"/></g><path fill="none" stroke="coral" stroke-linecap="round" stroke-linejoin="round" stroke-width="2.538" d="m0 0c3.7918.0171509 5.56841.0171509 5.32981 0 .04039 10.3588.04039 15.5383 0 15.5383-.04038 0-1.77661-.0007-5.208678-.0021v-6.93231" transform="translate(9.15433 1.50565)"/></svg>
