<svg xmlns="http://www.w3.org/2000/svg" width="24" height="24"><path fill="none" stroke="#749fcf" stroke-width=".752" d="M12 2.287c7.116 3.532 6.1 16.777 0 19.426M.818 12h22.364M2.19 6.689c5.693.758 13.825.758 19.518 0M2.19 17.311c5.693-.758 13.825-.758 19.518 0M12 2.287C5.9 4.936 4.884 18.18 12 21.713"/><path fill="none" stroke="#5488c4" stroke-width="1.284" d="M6.966 13.81c0 6.713-5.423 12.156-12.113 12.156-6.69 0-12.112-5.443-12.112-12.157S-11.836 1.653-5.147 1.653c6.69 0 12.113 5.442 12.113 12.156z" transform="matrix(.94419 0 0 .81716 16.86 .716)"/><path fill="none" stroke="#2b3b4d" stroke-linecap="round" stroke-linejoin="round" stroke-width=".976" d="M5.491 6.947l4.394 11.085 4.831-10.981 3.973-.016" overflow="visible"/><path fill="#fff" fill-rule="evenodd" stroke="#2b3b4d" stroke-linecap="round" stroke-linejoin="round" stroke-width=".947" d="M4.5 12.5a1 1 0 1 1-2 0 1 1 0 0 1 2 0z" overflow="visible" transform="matrix(1.16314 0 0 1.21859 1.42 -8.285)"/><path fill="#fff" fill-rule="evenodd" stroke="#2b3b4d" stroke-linecap="round" stroke-linejoin="round" stroke-width=".936" d="M4.5 12.5a1 1 0 1 1-2 0 1 1 0 0 1 2 0z" overflow="visible" transform="matrix(1.19051 0 0 1.21859 5.718 2.8)"/><path fill="#fff" fill-rule="evenodd" stroke="#2b3b4d" stroke-linecap="round" stroke-linejoin="round" stroke-width=".947" d="M4.5 12.5a1 1 0 1 1-2 0 1 1 0 0 1 2 0z" overflow="visible" transform="matrix(1.16314 0 0 1.21859 10.522 -8.208)"/><path fill="#fff" fill-rule="evenodd" stroke="#2b3b4d" stroke-linecap="round" stroke-linejoin="round" stroke-width=".947" d="M4.5 12.5a1 1 0 1 1-2 0 1 1 0 0 1 2 0z" overflow="visible" transform="matrix(1.16314 0 0 1.21859 14.618 -8.198)"/></svg>