<svg xmlns="http://www.w3.org/2000/svg" xmlns:svg="http://www.w3.org/2000/svg" id="svg6" width="16" height="16" version="1.1"><metadata id="metadata12"/><path id="path842-5" fill="none" stroke="#2c2c2c" stroke-linecap="butt" stroke-linejoin="miter" stroke-opacity=".706" stroke-width="1" d="M 6,11.5 H 2.9882619 c -3.27511753,0 -3.35996503,-7 0,-7 H 7.9942708 C 9.7561889,4.4999498 10.484071,6.5889993 10.5,8.000348 L 8.5,8 C 8.4745148,7.2274193 8.1077127,6.5056631 7.4936695,6.5 H 3.4888627 c -1.3460082,0 -1.3209711,3 0,3 H 5" opacity="1"/><path id="path842-5-6" fill="none" stroke="#2c2c2c" stroke-linecap="butt" stroke-linejoin="miter" stroke-opacity=".706" stroke-width="1" d="m 10.005676,4.5 h 3.011738 c 3.275118,0 3.359965,7 0,7 H 8.0114052 C 6.2494871,11.50005 5.521605,9.4110007 5.505676,7.999652 l 2,3.48e-4 c 0.025485,0.7725807 0.3922873,1.4943369 1.0063305,1.5 h 4.0048065 c 1.346008,0 1.320971,-3 0,-3 h -1.511137" opacity="1"/></svg>