<svg xmlns="http://www.w3.org/2000/svg" xmlns:xlink="http://www.w3.org/1999/xlink" width="32" height="32"><linearGradient id="a" x1="5.632" x2="10.632" y1="3.705" y2="15.705" gradientUnits="userSpaceOnUse"><stop offset="0" stop-color="#f1f1f1"/><stop offset="1" stop-color="#d6d6d6"/></linearGradient><path fill="none" stroke="#2b3b4d" d="m10.283011 8.3578359l10.139192.00203v7.8920306"/><g fill-rule="evenodd" stroke="#888a85" stroke-linecap="round" stroke-linejoin="round" transform="translate(-.431455 -.14381833)"><rect width="13" height="15" x="2.632" y="1.705" fill="url(#a)" overflow="visible" rx="1"/><path fill="#eeeeec" d="m2.6324644 5.7047943l12.9999996 0" overflow="visible"/><path fill="#eeeeec" d="m4.6324644 8.7047943l2 0" overflow="visible"/><path fill="#eeeeec" d="m4.6324644 11.704794l2 0" overflow="visible"/><path fill="#eeeeec" d="m4.6324644 14.704795l2 0" overflow="visible"/><path fill="#eeeeec" d="m9.6324641 8.7047943l3.9999999 0" overflow="visible"/><path fill="#eeeeec" d="m9.5703417 11.663069l4.0621223.04172" overflow="visible"/><path fill="#eeeeec" d="m9.6324641 14.704795l3.9999999 0" overflow="visible"/><path fill="#eeeeec" d="m4.7035514 3.7105107l1.928913-.00572" overflow="visible"/><path fill="#eeeeec" d="m9.6324641 3.7047943l3.9999999 0" overflow="visible"/></g><g fill-rule="evenodd" stroke="#888a85" stroke-linecap="round" stroke-linejoin="round" transform="translate(14.885197 13.80656)"><rect width="13" height="15" x="2.632" y="1.705" fill="url(#a)" overflow="visible" rx="1"/><path fill="#eeeeec" d="m2.6324644 5.7047943l12.9999996 0" overflow="visible"/><path fill="#eeeeec" d="m4.6324644 8.7047943l2 0" overflow="visible"/><path fill="#eeeeec" d="m4.6324644 11.704794l2 0" overflow="visible"/><path fill="#eeeeec" d="m4.6324644 14.704795l2 0" overflow="visible"/><path fill="#eeeeec" d="m9.6324641 8.7047943l3.9999999 0" overflow="visible"/><path fill="#eeeeec" d="m9.5703417 11.663069l4.0621223.04172" overflow="visible"/><path fill="#eeeeec" d="m9.6324641 14.704795l3.9999999 0" overflow="visible"/><path fill="#eeeeec" d="m4.7035514 3.7105107l1.928913-.00572" overflow="visible"/><path fill="#eeeeec" d="m9.6324641 3.7047943l3.9999999 0" overflow="visible"/></g></svg>
