<svg xmlns="http://www.w3.org/2000/svg" xmlns:svg="http://www.w3.org/2000/svg" id="svg2" width="16" height="16" version="1.1" viewBox="0 0 16 16"><metadata id="metadata15"/><desc id="desc6"/><g id="Page-1" fill="none" fill-rule="evenodd" stroke="none" stroke-width="1" transform="matrix(0.56015021,0,0,0.56015021,-1.3609013,-1.3602825)"><g id="icon-111-search" fill="#929292"><path id="search" d="M 19.427116,21.427116 C 18.03725,22.41748 16.336652,23 14.5,23 9.8055794,23 6,19.194421 6,14.5 6,9.8055794 9.8055794,6 14.5,6 c 4.694421,0 8.5,3.8055794 8.5,8.5 0,1.836652 -0.58252,3.53725 -1.572884,4.927116 l 5.584802,5.584802 c 0.550201,0.550201 0.545613,1.430551 -2e-4,1.976363 l -0.02344,0.02344 c -0.544416,0.544417 -1.430661,0.545902 -1.976363,2e-4 l -5.584802,-5.584802 0,0 z M 14.5,21 C 18.089851,21 21,18.089851 21,14.5 21,10.910149 18.089851,8 14.5,8 10.910149,8 8,10.910149 8,14.5 8,18.089851 10.910149,21 14.5,21 l 0,0 z"/></g></g></svg>
