<svg xmlns="http://www.w3.org/2000/svg" width="64" height="64"><path fill="none" stroke="#5a5a5a" stroke-linecap="round" d="m60.727274 32.272728a28.545454 29.727272 0 1 1 -57.0909081 0 28.545454 29.727272 0 1 1 57.0909081 0z"/><path fill="none" stroke="#5a5a5a" stroke-linecap="round" d="m50 27.818182a20.818182 20.363636 0 1 1 -41.636364 0 20.818182 20.363636 0 1 1 41.636364 0z" transform="matrix(.95684956 0 0 1.0005292 4.7137539 4.7125503)"/><path fill="none" stroke="#000" d="m31.636364-.18181818c.181818 64.00000018.181818 64.00000018.181818 64.00000018"/><path fill="none" stroke="#000" d="m .36363636 33.272727c63.27272764.181818 63.27272764.181818 63.27272764.181818"/><path fill="none" stroke="#000" d="m54.727273 9.2727273l-44.363637 46.5454547"/><path fill="none" stroke="#000" d="m8.5454545 10.181818l45.2727275 45.272727"/></svg>
