<svg xmlns="http://www.w3.org/2000/svg" xmlns:xlink="http://www.w3.org/1999/xlink" width="64" height="64"><defs><linearGradient id="g" x1="5.3" x2="49.9" y1="14.9" y2="14.9" gradientTransform="translate(.298)" gradientUnits="userSpaceOnUse" xlink:href="#a"/><linearGradient id="a"><stop offset="0" stop-color="#7f0b0b"/><stop offset=".176" stop-color="#ea2c2c"/><stop offset="1" stop-color="#a31111"/></linearGradient><linearGradient id="f" x1="5.3" x2="49.9" y1="14.9" y2="14.9" gradientTransform="translate(.298 10.5)" gradientUnits="userSpaceOnUse"><stop offset="0" stop-color="#cea80b"/><stop offset=".176" stop-color="#fbe74c"/><stop offset="1" stop-color="#ddbe05"/></linearGradient><linearGradient id="e" x1="5.3" x2="49.9" y1="14.9" y2="14.9" gradientTransform="translate(.298 21.1)" gradientUnits="userSpaceOnUse"><stop offset="0" stop-color="#3b6290" stop-opacity=".992"/><stop offset=".176" stop-color="#6f9bcc"/><stop offset="1" stop-color="#3e6391" stop-opacity=".996"/></linearGradient><linearGradient id="d" x1="5.3" x2="49.9" y1="14.9" y2="14.9" gradientTransform="translate(10.3 15.1)" gradientUnits="userSpaceOnUse"><stop offset="0" stop-color="#4f9b06"/><stop offset=".176" stop-color="#88e032"/><stop offset="1" stop-color="#519d07"/></linearGradient><linearGradient id="c" x1="5.3" x2="49.9" y1="14.9" y2="14.9" gradientTransform="translate(10.3 25.6)" gradientUnits="userSpaceOnUse"><stop offset="0" stop-color="#aaa"/><stop offset=".176" stop-color="#e1e1e1"/><stop offset="1" stop-color="#ababab"/></linearGradient><linearGradient id="b" x1="5.3" x2="49.9" y1="14.9" y2="14.9" gradientTransform="translate(10.3 36.1)" gradientUnits="userSpaceOnUse" xlink:href="#a"/></defs><path fill="url(#g)" stroke="gray" stroke-linejoin="bevel" stroke-opacity=".599" d="m32.3 19.9c-8-.491-10.5-1.93-16.6-1.93-6.03 0-10.1 2.9-10.1 2.9v-10.5s4.03-2.9 10.1-2.9c6.03 0 8.56 1.44 16.6 1.93s18 .491 18 .491v10.5s-10 0-18-.491z" paint-order="stroke markers fill"/><path fill="url(#f)" stroke="gray" stroke-linejoin="bevel" stroke-opacity=".599" d="m32.3 30.5c-8-.491-10.5-1.93-16.6-1.93-6.03 0-10.1 2.9-10.1 2.9v-10.5s4.03-2.9 10.1-2.9c6.03 0 8.56 1.44 16.6 1.93s18 .491 18 .491v10.5s-10 0-18-.491z" paint-order="stroke markers fill"/><path fill="url(#e)" stroke="gray" stroke-linejoin="bevel" stroke-opacity=".599" d="m32.3 41c-8-.491-10.5-1.93-16.6-1.93-6.03 0-10.1 2.9-10.1 2.9v-10.5s4.03-2.9 10.1-2.9c6.03 0 8.56 1.44 16.6 1.93s18 .491 18 .491v10.5s-10 0-18-.491z" paint-order="stroke markers fill"/><path fill="url(#d)" stroke="gray" stroke-linejoin="bevel" stroke-opacity=".599" d="m42.3 35c-8-.491-10.5-1.93-16.6-1.93s-10.1 2.9-10.1 2.9v-10.5s4.03-2.9 10.1-2.9 8.56 1.44 16.6 1.93 18 .491 18 .491v10.5s-10 0-18-.491z" paint-order="stroke markers fill"/><path fill="url(#c)" stroke="gray" stroke-linejoin="bevel" stroke-opacity=".599" d="m42.3 45.5c-8-.491-10.5-1.93-16.6-1.93s-10.1 2.9-10.1 2.9v-10.5s4.03-2.9 10.1-2.9 8.56 1.44 16.6 1.93 18 .491 18 .491v10.5s-10 0-18-.491z" paint-order="stroke markers fill"/><path fill="url(#b)" stroke="gray" stroke-linejoin="bevel" stroke-opacity=".599" d="m42.3 56.1c-8-.491-10.5-1.93-16.6-1.93s-10.1 2.9-10.1 2.9v-10.5s4.03-2.9 10.1-2.9 8.56 1.44 16.6 1.93c8 .491 18 .491 18 .491v10.5s-10 0-18-.491z" paint-order="stroke markers fill"/></svg>
