<svg xmlns="http://www.w3.org/2000/svg" xmlns:svg="http://www.w3.org/2000/svg" xmlns:xlink="http://www.w3.org/1999/xlink" id="svg2" width="16" height="16" version="1.1"><defs id="defs4"><marker id="TriangleOutM" orient="auto" overflow="visible" refX="0" refY="0"><path id="path3940" fill-rule="evenodd" stroke="#000" stroke-width="1pt" d="M 5.77,0.0 L -2.88,5.0 L -2.88,-5.0 L 5.77,0.0 z" transform="scale(0.4)"/></marker><marker id="Arrow1Send" orient="auto" overflow="visible" refX="0" refY="0"><path id="path3810" fill-rule="evenodd" stroke="#000" stroke-width="1pt" d="M 0.0,0.0 L 5.0,-5.0 L -12.5,0.0 L 5.0,5.0 L 0.0,0.0 z" transform="scale(0.2) rotate(180) translate(6,0)"/></marker><marker id="Arrow1Mend" orient="auto" overflow="visible" refX="0" refY="0"><path id="path3804" fill-rule="evenodd" stroke="#000" stroke-width="1pt" d="M 0.0,0.0 L 5.0,-5.0 L -12.5,0.0 L 5.0,5.0 L 0.0,0.0 z" transform="scale(0.4) rotate(180) translate(10,0)"/></marker><marker id="Arrow2Lend" orient="auto" overflow="visible" refX="0" refY="0"><path id="path3816" fill-rule="evenodd" stroke-linejoin="round" stroke-width=".625" d="M 8.7185878,4.0337352 L -2.2072895,0.016013256 L 8.7185884,-4.0017078 C 6.9730900,-1.6296469 6.9831476,1.6157441 8.7185878,4.0337352 z" transform="scale(1.1) rotate(180) translate(1,0)"/></marker><marker id="TriangleOutL" orient="auto" overflow="visible" refX="0" refY="0"><path id="path3937" fill-rule="evenodd" stroke="#000" stroke-width="1pt" d="M 5.77,0.0 L -2.88,5.0 L -2.88,-5.0 L 5.77,0.0 z" transform="scale(0.8)"/></marker><linearGradient id="linearGradient3755"><stop id="stop3767" offset="0" stop-color="#00f" stop-opacity=".502"/><stop id="stop3765" offset=".35" stop-color="#0ff" stop-opacity=".502"/><stop id="stop3763" offset=".5" stop-color="#0f0" stop-opacity=".502"/><stop id="stop3769" offset=".65" stop-color="#ff0" stop-opacity=".502"/><stop id="stop3759" offset="1" stop-color="red" stop-opacity=".51"/></linearGradient><linearGradient id="linearGradient3761" x1="-.045" x2="15.955" y1=".071" y2="16.054" gradientUnits="userSpaceOnUse" xlink:href="#linearGradient3755"/></defs><metadata id="metadata7"/><g id="layer1" transform="translate(0,-1036.3622)"><path id="path111" fill="#666" fill-opacity="1" stroke="#000" stroke-linecap="butt" stroke-linejoin="miter" stroke-opacity="1" stroke-width="1" d="m 2.7463522,1038.4726 -0.063134,12.1219"/><path id="path111-6" fill="#666" fill-opacity="1" stroke="#000" stroke-linecap="butt" stroke-linejoin="miter" stroke-opacity="1" stroke-width="1" d="m 6.2818858,1038.4725 -0.063134,12.1219"/><path id="path111-2" fill="#666" fill-opacity="1" stroke="#000" stroke-linecap="butt" stroke-linejoin="miter" stroke-opacity="1" stroke-width="1" d="m 9.5964489,1038.5042 -0.063134,12.1219"/><path id="path111-9" fill="#666" fill-opacity="1" stroke="#000" stroke-linecap="butt" stroke-linejoin="miter" stroke-opacity="1" stroke-width="1" d="m 12.942579,1038.5356 -0.06313,12.1219"/><path id="path1015" fill="none" stroke="#000" stroke-linecap="butt" stroke-linejoin="miter" stroke-opacity="1" stroke-width="1.047" d="m 2.1764118,1050.0579 11.2098392,0.063 v 0 0 0 0 0"/><path id="path1015-2" fill="none" stroke="#000" stroke-linecap="butt" stroke-linejoin="miter" stroke-opacity="1" stroke-width="1.047" d="m 2.2012383,1046.121 11.2098387,0.063 v 0 0 0 0 0"/><path id="path1015-7" fill="none" stroke="#000" stroke-linecap="butt" stroke-linejoin="miter" stroke-opacity="1" stroke-width="1.047" d="m 2.1921954,1039.0093 11.2098396,0.063 v 0 0 0 0 0"/><path id="path1015-0" fill="none" stroke="#000" stroke-linecap="butt" stroke-linejoin="miter" stroke-opacity="1" stroke-width="1.047" d="m 2.2237627,1042.7026 11.2098393,0.063 v 0 0 0 0 0"/></g></svg>
