<svg xmlns="http://www.w3.org/2000/svg" xmlns:svg="http://www.w3.org/2000/svg" xmlns:xlink="http://www.w3.org/1999/xlink" id="svg2" width="16" height="16" version="1.1"><defs id="defs4"><marker id="TriangleOutM" orient="auto" overflow="visible" refX="0" refY="0"><path id="path3940" fill-rule="evenodd" stroke="#000" stroke-width="1pt" d="M 5.77,0.0 L -2.88,5.0 L -2.88,-5.0 L 5.77,0.0 z" transform="scale(0.4)"/></marker><marker id="Arrow1Send" orient="auto" overflow="visible" refX="0" refY="0"><path id="path3810" fill-rule="evenodd" stroke="#000" stroke-width="1pt" d="M 0.0,0.0 L 5.0,-5.0 L -12.5,0.0 L 5.0,5.0 L 0.0,0.0 z" transform="scale(0.2) rotate(180) translate(6,0)"/></marker><marker id="Arrow1Mend" orient="auto" overflow="visible" refX="0" refY="0"><path id="path3804" fill-rule="evenodd" stroke="#000" stroke-width="1pt" d="M 0.0,0.0 L 5.0,-5.0 L -12.5,0.0 L 5.0,5.0 L 0.0,0.0 z" transform="scale(0.4) rotate(180) translate(10,0)"/></marker><marker id="Arrow2Lend" orient="auto" overflow="visible" refX="0" refY="0"><path id="path3816" fill-rule="evenodd" stroke-linejoin="round" stroke-width=".625" d="M 8.7185878,4.0337352 L -2.2072895,0.016013256 L 8.7185884,-4.0017078 C 6.9730900,-1.6296469 6.9831476,1.6157441 8.7185878,4.0337352 z" transform="scale(1.1) rotate(180) translate(1,0)"/></marker><marker id="TriangleOutL" orient="auto" overflow="visible" refX="0" refY="0"><path id="path3937" fill-rule="evenodd" stroke="#000" stroke-width="1pt" d="M 5.77,0.0 L -2.88,5.0 L -2.88,-5.0 L 5.77,0.0 z" transform="scale(0.8)"/></marker><linearGradient id="linearGradient3755"><stop id="stop3767" offset="0" stop-color="#00f" stop-opacity=".502"/><stop id="stop3765" offset=".35" stop-color="#0ff" stop-opacity=".502"/><stop id="stop3763" offset=".5" stop-color="#0f0" stop-opacity=".502"/><stop id="stop3769" offset=".65" stop-color="#ff0" stop-opacity=".502"/><stop id="stop3759" offset="1" stop-color="red" stop-opacity=".51"/></linearGradient><linearGradient id="linearGradient3761" x1="-.045" x2="15.955" y1=".071" y2="16.054" gradientUnits="userSpaceOnUse" xlink:href="#linearGradient3755"/></defs><metadata id="metadata7"/><g id="layer1" transform="translate(0,-1036.3622)"><rect id="rect2985" width="16" height="16" x="-.045" y=".018" fill="url(#linearGradient3761)" fill-opacity="1" stroke="none" transform="translate(0,1036.3622)"/></g></svg>
