<svg xmlns="http://www.w3.org/2000/svg" xmlns:xlink="http://www.w3.org/1999/xlink" width="64" height="64"><defs><g id="k"><rect width="21" height="20.5" x="3" y="24" fill="#d3d7cf" stroke="#000" stroke-linejoin="bevel" stroke-opacity=".599" paint-order="stroke markers fill" ry="2.65"/><rect width="17" height="14" x="5" y="26" fill="#6885ae" stroke="#000" stroke-linejoin="round" stroke-opacity=".599" paint-order="stroke markers fill" ry="1"/><rect width="21" height="4" x="3" y="45" fill="#d3d7cf" stroke="#000" stroke-linejoin="round" stroke-opacity=".599" paint-order="stroke markers fill" ry=".539"/><path fill="#204a87" d="m22 29.9v9.09c0 .554-.446 1-1 1h-15c-.554 0-1-.446-1-1v-3.66c7 .172 13.1-.647 17-5.43z" paint-order="stroke markers fill"/><rect width="8" height="2" x="15" y="46" fill="#a4a9a1" paint-order="stroke markers fill" ry="0"/></g></defs><rect width="18" height="2" x="23" y="41" fill="#fff" stroke="gray" stroke-linejoin="round" paint-order="stroke markers fill" ry="0"/><rect width="2.24" height="10.5" x="34.4" y="30" fill="#fff" stroke="gray" stroke-linejoin="round" paint-order="stroke markers fill"/><circle cx="35.5" cy="41.8" r="1.72" fill="#fff" stroke="gray" stroke-linejoin="round" paint-order="stroke markers fill"/><use x="0" y="0" xlink:href="#k"/><use x="25" y="-17" xlink:href="#k"/><use x="37" y="12" xlink:href="#k"/></svg>
