<svg xmlns="http://www.w3.org/2000/svg" xmlns:svg="http://www.w3.org/2000/svg" id="svg4142" width="24" height="24" version="1.1"><metadata id="metadata4158"/><g id="g4144" fill="#73d216" stroke-linecap="round" stroke-linejoin="round" stroke-width=".75" transform="translate(0 -6)"><path id="path4146" stroke="#4e9a06" d="m11.5 1c-1.380712 0-2.5 1.1192881-2.5 2.5 0 .3597817.363178.6908983.5 1l-5 0 0 5c .3091017-.1368217.6402183-.5 1-.5 1.3807119 0 2.5 1.119288 2.5 2.5 0 1.380712-1.1192881 2.5-2.5 2.5-.3597817 0-.6908983-.363178-1-.5l0 5 14 0 0-5c .309102.136822.640218.5 1 .5 1.380712 0 2.5-1.119288 2.5-2.5 0-1.380712-1.119288-2.5-2.5-2.5-.359782 0-.690898.363178-1 .5l0-5-5 0c .136822-.3091017.5-.6402183.5-1 0-1.3807119-1.119288-2.5-2.5-2.5z" overflow="visible" transform="translate(0 8)"/><path id="path4148" stroke="#eeeeec" d="m5.5 15.5l0-2 3 0" overflow="visible"/><path id="path4150" stroke="#eeeeec" d="m5.5 17.5l0-2" overflow="visible" transform="translate(0 8)"/><path id="path4152" stroke="#eeeeec" d="m13.5 5.5l3 0 0 0 0 0" overflow="visible" transform="translate(0 8)"/></g><path id="path3782" fill="#555753" d="m 11.808709,13.026632 0.857159,0 0,-0.857141 -0.857159,0 0,-0.85714 0.857159,0 0,-0.857139 -0.857159,0 0,-0.8571416 0.857159,0 0,-0.857153 -0.857159,0 0,-0.8571407 0.857159,0 0,-0.8571428 -0.857159,0 0,-0.8571425 -0.857141,0 0,0.8571425 -0.857138,0 0,0.8571428 0.857138,0 0,0.8571407 -0.857138,0 0,0.857153 0.857138,0 0,0.8571416 -0.857138,0 0,0.857139 0.857138,0 0,0.85714 -0.857138,0 0,0.857141 0.857138,0 0,0.857139 -1.7142799,0 0,2.14286 c 0,1.181581 0.9612799,2.14286 2.1428609,2.14286 1.18156,0 2.142859,-0.961279 2.142859,-2.14286 l 0,-2.14286 -1.714299,0 0,-0.857139 z m 0.857159,2.999999 c 0,0.70886 -0.57686,1.28572 -1.285719,1.28572 -0.70886,0 -1.285719,-0.57686 -1.285719,-1.28572 l 0,-1.28572 2.571438,0 0,1.28572 z"/></svg>