<svg xmlns="http://www.w3.org/2000/svg" xmlns:svg="http://www.w3.org/2000/svg" id="svg2" width="24" height="24" version="1.1" viewBox="0 0 24 24"><metadata id="metadata14"/><path color="#000" style="isolation:auto;mix-blend-mode:normal;solid-color:#000;solid-opacity:1" id="path6-7" fill="#fff" fill-opacity="1" fill-rule="nonzero" stroke-dasharray="none" stroke-dashoffset="0" stroke-linecap="butt" stroke-linejoin="miter" stroke-miterlimit="4" stroke-opacity="1" stroke-width="1" d="m 8.4,0 -2.196,2.4444444 -3.804,0 c -1.32,0 -2.4,1.1 -2.4,2.4444444 L 0,19.555556 C 0,20.9 1.08,22 2.4,22 l 19.2,0 C 22.92,22 24,20.9 24,19.555556 L 24,4.8888888 C 24,3.5444444 22.92,2.4444444 21.6,2.4444444 l -3.804,0 L 15.6,0 Z" clip-rule="nonzero" color-interpolation="sRGB" color-interpolation-filters="linearRGB" color-rendering="auto" display="inline" enable-background="accumulate" image-rendering="auto" opacity="1" overflow="visible" shape-rendering="auto" text-rendering="auto" visibility="visible"/><circle id="circle4" cx="12" cy="12" r="3.2"/><path color="#000" style="isolation:auto;mix-blend-mode:normal;solid-color:#000;solid-opacity:1;filter-blend-mode:normal;filter-gaussianBlur-deviation:0" id="path6" fill="#000" fill-opacity="1" fill-rule="nonzero" stroke-dasharray="none" stroke-dashoffset="0" stroke-linecap="butt" stroke-linejoin="miter" stroke-miterlimit="4" stroke-opacity="1" stroke-width="1" d="M9 2L7.17 4H4c-1.1 0-2 .9-2 2v12c0 1.1.9 2 2 2h16c1.1 0 2-.9 2-2V6c0-1.1-.9-2-2-2h-3.17L15 2H9zm3 15c-2.76 0-5-2.24-5-5s2.24-5 5-5 5 2.24 5 5-2.24 5-5 5z" clip-rule="nonzero" color-interpolation="sRGB" color-interpolation-filters="linearRGB" color-rendering="auto" display="inline" enable-background="accumulate" image-rendering="auto" opacity="1" overflow="visible" shape-rendering="auto" text-rendering="auto" visibility="visible"/><path id="path8" fill="none" d="M0 0h24v24H0z"/></svg>