<svg xmlns="http://www.w3.org/2000/svg" xmlns:svg="http://www.w3.org/2000/svg" id="Layer_1" width="32" height="32" x="0" y="0" enable-background="new 0 0 32 32" version="1.1" viewBox="0 0 32 32" xml:space="preserve"><metadata id="metadata3043"/><path id="path3035" d="M16,1C7.715,1,1,7.716,1,16c0,8.283,6.715,15,15,15c8.283,0,15-6.717,15-15C31,7.716,24.283,1,16,1z M23.76,20.932c0.781,0.781,0.781,2.047,0,2.828c-0.391,0.391-0.902,0.586-1.414,0.586s-1.023-0.195-1.414-0.586L16,18.828 l-4.931,4.932c-0.39,0.391-0.902,0.586-1.414,0.586S8.631,24.15,8.241,23.76c-0.781-0.781-0.781-2.047,0-2.828L13.172,16 l-4.931-4.931c-0.781-0.781-0.781-2.047,0-2.828c0.78-0.781,2.048-0.781,2.828,0L16,13.172l4.932-4.931 c0.781-0.781,2.047-0.781,2.828,0c0.781,0.781,0.781,2.047,0,2.828L18.828,16L23.76,20.932z" opacity=".75"/><path id="path3037" fill="#FFF" d="M18.828,16l4.932-4.931c0.781-0.781,0.781-2.047,0-2.828c-0.781-0.781-2.047-0.781-2.828,0 L16,13.172l-4.931-4.931c-0.78-0.781-2.048-0.781-2.828,0c-0.781,0.781-0.781,2.047,0,2.828L13.172,16l-4.931,4.932 c-0.781,0.781-0.781,2.047,0,2.828c0.39,0.391,0.902,0.586,1.414,0.586s1.024-0.195,1.414-0.586L16,18.828l4.932,4.932 c0.391,0.391,0.902,0.586,1.414,0.586s1.023-0.195,1.414-0.586c0.781-0.781,0.781-2.047,0-2.828L18.828,16z" opacity=".9"/></svg>