<svg xmlns="http://www.w3.org/2000/svg" xmlns:svg="http://www.w3.org/2000/svg" xmlns:xlink="http://www.w3.org/1999/xlink" id="svg2" width="24" height="24" version="1.1" viewBox="0 0 24 24"><title id="title4232">Topology Checker icon</title><metadata id="metadata122"/><defs id="defs12"><linearGradient id="svg_1" y2="1"><stop id="stop15" offset="0" stop-color="#e8e8e8"/><stop id="stop17" offset="1" stop-color="#171717"/></linearGradient><linearGradient id="svg_2" x1="0" x2="1" y1="0" y2="1" spreadMethod="pad"><stop id="stop20" offset="0" stop-color="#e8e8e8"/><stop id="stop22" offset="1" stop-color="#171717"/></linearGradient><linearGradient id="svg_3" x1=".488" x2="1" y1=".363" y2="1" spreadMethod="pad"><stop id="stop25" offset="0" stop-color="#e8e8e8"/><stop id="stop27" offset="1" stop-color="#171717"/></linearGradient><linearGradient id="svg_4" x1="0" x2="1" y1="0" y2="1" spreadMethod="pad"><stop id="stop30" offset="0" stop-color="#efefef" stop-opacity=".996"/><stop id="stop32" offset="1" stop-color="#828282" stop-opacity=".996"/></linearGradient><linearGradient id="svg_5" x1="0" x2="1" y1="0" y2="1" spreadMethod="pad"><stop id="stop35" offset="0" stop-color="#fff" stop-opacity=".992"/><stop id="stop37" offset="1" stop-color="#828282" stop-opacity=".996"/></linearGradient><linearGradient id="svg_6" x1="0" x2="1" y1="0" y2="1" spreadMethod="pad"><stop id="stop40" offset="0" stop-color="#fff" stop-opacity=".992"/><stop id="stop42" offset="1" stop-color="#828282" stop-opacity=".996"/><stop id="stop44" offset="1" stop-color="#828282" stop-opacity=".996"/></linearGradient><linearGradient id="svg_7" x1="0" x2="1" y1="0" y2="1" spreadMethod="pad"><stop id="stop47" offset="0" stop-color="#fff" stop-opacity=".988"/><stop id="stop49" offset="1" stop-color="#ccc" stop-opacity=".992"/><stop id="stop51" offset="1" stop-color="#828282" stop-opacity=".996"/><stop id="stop53" offset="1" stop-color="#828282" stop-opacity=".996"/><stop id="stop55" offset="1" stop-color="#828282" stop-opacity=".996"/></linearGradient><linearGradient id="svg_8" x1="0" x2="1" y1="0" y2="1" spreadMethod="pad"><stop id="stop58" offset="0" stop-color="#fff" stop-opacity=".988"/><stop id="stop60" offset="1" stop-color="#ccc" stop-opacity=".992"/><stop id="stop62" offset="1" stop-color="#ccc" stop-opacity=".992"/><stop id="stop64" offset="1" stop-color="#828282" stop-opacity=".996"/><stop id="stop66" offset="1" stop-color="#828282" stop-opacity=".996"/><stop id="stop68" offset="1" stop-color="#828282" stop-opacity=".996"/></linearGradient><linearGradient id="svg_9"><stop id="stop71" offset="0" stop-color="#fff"/><stop id="stop73" offset="1" stop-color="#000"/></linearGradient><linearGradient id="svg_10"><stop id="stop76" offset="0" stop-color="#fff"/><stop id="stop78" offset="1" stop-color="#ddd" stop-opacity=".996"/></linearGradient><linearGradient id="svg_11" x1="0" x2="1" y1="0" y2="1"><stop id="stop81" offset="0" stop-color="#fff"/><stop id="stop83" offset="1" stop-color="#ddd" stop-opacity=".996"/></linearGradient><linearGradient id="svg_12" x1="0" x2="1" y1="0" y2="1"><stop id="stop86" offset="0" stop-color="#fff"/><stop id="stop88" offset="1" stop-color="#f2f2f2" stop-opacity=".992"/></linearGradient><linearGradient id="svg_13" x2="1" y2="1"><stop id="stop91" offset="0" stop-color="#fff" stop-opacity=".996"/><stop id="stop93" offset="1" stop-color="#c1c1c1" stop-opacity=".996"/></linearGradient><linearGradient id="svg_14" x1="0" x2="1" y1="0" y2="1"><stop id="stop96" offset="0" stop-color="#fff" stop-opacity=".996"/><stop id="stop98" offset="1" stop-color="#c1c1c1" stop-opacity=".996"/></linearGradient><linearGradient id="svg_15" x1="0" x2="1" y1="0" y2="1" spreadMethod="pad"><stop id="stop101" offset="0" stop-color="#efefef" stop-opacity=".996"/><stop id="stop103" offset="1" stop-color="#828282" stop-opacity=".996"/></linearGradient><linearGradient id="svg_16" x2="1" y2="1"><stop id="stop106" offset="0" stop-color="#fff"/><stop id="stop108" offset="1" stop-color="#000"/></linearGradient><linearGradient id="svg_17" x1="0" x2="1" y1="0" y2="1"><stop id="stop111" offset="0" stop-color="#fff"/><stop id="stop113" offset="1" stop-color="#e0e0e0" stop-opacity=".996"/></linearGradient><linearGradient id="svg_18" x1="0" x2="1" y1="0" y2="1"><stop id="stop116" offset="0" stop-color="#fff"/><stop id="stop118" offset="1" stop-color="#cecece" stop-opacity=".992"/></linearGradient><linearGradient id="linearGradient3673" x1="304.76" x2="335.3" y1="64.295" y2="81.926" gradientTransform="matrix(-0.10786508,0.87849049,0.87408031,0.10732357,-1.811623,758.65836)" gradientUnits="userSpaceOnUse" xlink:href="#linearGradient3408-4"/><linearGradient id="linearGradient3408-4" x1="304.76" x2="335.3" y1="64.295" y2="81.926" gradientTransform="matrix(1.7376,0,0,1.728,-530.46,-8.9744)" gradientUnits="userSpaceOnUse"><stop id="stop4436-7" offset="0" stop-color="#d3d7cf"/><stop id="stop4438-4" offset=".183" stop-color="#babdb6"/><stop id="stop4440-7" offset=".319" stop-color="#fff"/><stop id="stop4442-1" offset=".876" stop-color="#babdb6"/><stop id="stop4444-03" offset="1" stop-color="#eeeeec"/></linearGradient><linearGradient id="linearGradient3675" x1="-6.308" x2="-9.775" y1="44.229" y2="44.14" gradientTransform="matrix(-0.34112292,0.26690344,0.34708506,0.44633485,7.3860378,1027.6433)" gradientUnits="userSpaceOnUse" xlink:href="#linearGradient3420-5"/><linearGradient id="linearGradient3420-5" x1="-6.308" x2="-9.775" y1="44.229" y2="44.14" gradientTransform="matrix(0.63166,-0.62958,1.0718,1.0683,-15.764,65.934)" gradientUnits="userSpaceOnUse"><stop id="stop6223-6" offset="0"/><stop id="stop6225-69" offset="1" stop-opacity="0"/></linearGradient><linearGradient id="linearGradient3677" x1="97.442" x2="90.221" y1="35.152" y2="35.079" gradientTransform="matrix(-0.67481701,0.52736572,0.29432462,0.37835898,77.717559,981.12162)" gradientUnits="userSpaceOnUse" xlink:href="#linearGradient3416-4-9"/><linearGradient id="linearGradient3416-4-9" x1="97.442" x2="90.221" y1="35.152" y2="35.079" gradientTransform="matrix(1.0384,-1.036,0.90828,0.90612,-106.63,180.04)" gradientUnits="userSpaceOnUse"><stop id="stop4958-5-9" offset="0" stop-color="#f8e27e" stop-opacity="1"/><stop id="stop4960-0-7" offset="1" stop-color="#e3d189" stop-opacity="1"/></linearGradient></defs><path id="rect3054" fill="#6e97c4" fill-opacity="1" stroke="#284361" stroke-dasharray="none" stroke-linecap="butt" stroke-linejoin="miter" stroke-miterlimit="4" stroke-opacity="1" stroke-width=".85" d="M 4.6831624,8.6610294 C 5.2467914,6.5474206 9.9671839,4.4338119 9.9671839,4.4338119 12.770396,2.8134943 21.404158,2.6959554 21.404158,2.6959554 c 0,0 2.301482,7.0218778 -1.925735,8.0786816 0,0 -6.340826,0 -6.092223,2.489358 0,0 0.808201,4.908273 -3.4190161,4.908273 0,0 -6.3408258,-2.113609 -5.8476461,-4.789727 z"/><path id="path3887" fill="none" stroke="#415a75" stroke-linecap="butt" stroke-linejoin="miter" stroke-opacity="1" stroke-width="1.057" d="M 11.892918,7.9799773 2.3816775,2.6959554"/><path id="path3826" fill="#fce94f" fill-opacity="1" stroke="#415a75" stroke-dasharray="none" stroke-miterlimit="4" stroke-opacity="1" stroke-width=".759" d="m 8,5.5 a 1.5,1.5 0 1 1 -3,0 1.5,1.5 0 1 1 3,0 z" transform="matrix(1.3205068,0,0,1.3205068,-5.8016163,-4.3450945)"/><path id="path3885" fill="none" stroke="#415a75" stroke-linecap="butt" stroke-linejoin="miter" stroke-opacity="1" stroke-width="1.057" d="M 3.4384819,20.661626 11.892918,7.9799773 21.404158,2.6959554"/><path id="path3826-8" fill="#fce94f" fill-opacity="1" stroke="#415a75" stroke-dasharray="none" stroke-miterlimit="4" stroke-opacity="1" stroke-width=".712" d="m 8,5.5 a 1.5,1.5 0 1 1 -3,0 1.5,1.5 0 1 1 3,0 z" transform="matrix(1.4090724,0,0,1.4090724,-6.1204891,13.267283)"/><path id="path3826-2" fill="#fce94f" fill-opacity="1" stroke="#415a75" stroke-dasharray="none" stroke-miterlimit="4" stroke-opacity="1" stroke-width=".712" d="m 8,5.5 a 1.5,1.5 0 1 1 -3,0 1.5,1.5 0 1 1 3,0 z" transform="matrix(1.4090724,0,0,1.4090724,12.015392,-4.7670796)"/><path id="path3826-87" fill="#fce94f" fill-opacity="1" stroke="#415a75" stroke-dasharray="none" stroke-miterlimit="4" stroke-opacity="1" stroke-width=".759" d="m 8,5.5 a 1.5,1.5 0 1 1 -3,0 1.5,1.5 0 1 1 3,0 z" transform="matrix(1.3205068,0,0,1.3205068,3.1767743,0.71719004)"/><path id="path3053" fill="#fce94f" fill-opacity="1" stroke="#262626" stroke-dasharray="none" stroke-linecap="round" stroke-linejoin="round" stroke-miterlimit="4" stroke-opacity="1" stroke-width=".814" d="m 12.163438,15.793841 3.297346,7.2712 7.486889,-10.766765 -7.18949,5.825943 z"/></svg>