<svg xmlns="http://www.w3.org/2000/svg" xmlns:svg="http://www.w3.org/2000/svg" id="svg5692" width="24" height="24" version="1.1"><title id="title2829">GIS icon theme 0.2</title><defs id="defs5694"><linearGradient id="linearGradient3812"><stop id="stop3814" offset="0" stop-color="#6e97c4" stop-opacity="1"/><stop id="stop3816" offset="1" stop-color="#ecedef" stop-opacity="1"/></linearGradient></defs><metadata id="metadata5697"/><g id="layer2" display="inline" transform="translate(0,-8)"><rect id="rect4180" width="5" height="7" x="3.5" y="12.5" fill="#dde3ea" fill-opacity="1" fill-rule="evenodd" stroke="#2e4e72" stroke-dasharray="none" stroke-dashoffset="0" stroke-linecap="butt" stroke-linejoin="miter" stroke-miterlimit="4" stroke-opacity="1" stroke-width="1" clip-rule="nonzero" color="#000" color-interpolation="sRGB" color-interpolation-filters="linearRGB" color-rendering="auto" display="inline" enable-background="accumulate" image-rendering="auto" opacity="1" overflow="visible" shape-rendering="auto" text-rendering="auto" visibility="visible" style="isolation:auto;mix-blend-mode:normal;solid-color:#000;solid-opacity:1"/><g id="g3001" display="inline" transform="matrix(0.69230769,0,0,0.69230769,1.8461544,9.8461539)"><rect id="rect3563" width="13" height="13" x="19" y="19" fill="#c4a000" fill-opacity="1" stroke="#000" stroke-dasharray="none" stroke-linejoin="round" stroke-miterlimit="4" stroke-opacity="1" stroke-width="0" display="inline" rx="2.615" ry="2.615"/><path id="path6992" fill="#fcffff" fill-rule="evenodd" stroke="none" d="m 20.3,25.499999 10.4,0 c 0,0 0,0 0,-2.6 C 30.7,20.3 30.05,20.3 25.5,20.3 c -4.55,0 -5.2,0 -5.2,2.599999 0,2.6 0,2.6 0,2.6 z" display="inline" enable-background="new" opacity=".3"/><g id="text3831" fill="#fff" fill-opacity="1" stroke="#fff" stroke-dasharray="none" stroke-miterlimit="4" stroke-opacity="1" stroke-width=".497" font-family="Sans" font-size="40" font-style="normal" font-weight="normal" letter-spacing="0" transform="matrix(0.60271547,0,0,0.60365952,29.090173,29.540413)" word-spacing="0" style="line-height:125%"><path id="path3836" fill="#fff" fill-opacity="1" stroke="#fff" stroke-dasharray="none" stroke-miterlimit="4" stroke-opacity="1" stroke-width=".497" d="m -6.4566626,-5.8131979 0,0.76 c 0,1.039999 -0.1600005,1.7600009 -0.64,2.68 -0.7199993,1.55999844 -0.8,1.7600006 -0.8,2.36 0,1.1599988 0.880001,2.12 1.92,2.12 1.0799989,0 1.92,-0.9600012 1.92,-2.16 0,-0.3999996 -0.1200003,-0.92000052 -0.4,-1.44 -0.9199991,-1.959998 -1,-2.2800013 -1,-3.56 l 0,-0.76 0.64,0.4 c 0.8399992,0.4799995 1.4800006,1.0400008 2.04,1.84 1.3199987,1.7999982 1.7600011,2.16 2.84,2.16 0.999999,0 1.8,-0.760001 1.8,-1.76 0,-1.2399988 -1.04000156,-2.1600001 -2.6,-2.28 -1.959998,-0.1199999 -2.3200012,-0.2000007 -3.56,-0.88 l -0.64,-0.36 0.64,-0.36 c 0.9199991,-0.5199995 1.600001,-0.76 2.64,-0.8 1.5999984,-0.1599998 1.72000048,-0.1600002 2.2,-0.36 0.7999992,-0.3999996 1.32,-1.1200008 1.32,-1.9600001 0,-1.039999 -0.840001,-1.84 -1.88,-1.84 -0.87999912,0 -1.6000006,0.440001 -2.24,1.4 -1.1199989,1.6799984 -1.3600012,1.9200008 -2.56,2.6400001 l -0.64,0.4 0,-0.76 c 0,-0.999999 0.1600005,-1.7600011 0.64,-2.6800001 0.7599992,-1.599998 0.8,-1.76 0.8,-2.32 0,-1.199999 -0.8800011,-2.16 -1.96,-2.16 -1.039999,0 -1.92,0.960001 -1.92,2.12 0,0.44 0.1200003,0.960001 0.4,1.48 0.959999,1.9999981 1.04,2.2800014 1.04,3.5600001 l 0,0.76 -0.64,-0.4 c -0.9199991,-0.5199995 -1.4400006,-1.0400008 -2.04,-1.88 -0.7999992,-1.1999991 -0.8000003,-1.2000001 -1.1200004,-1.5200001 -0.439999,-0.399999 -1.08,-0.64 -1.6,-0.64 -1.079999,0 -1.92,0.840001 -1.92,1.84 0,1.2399989 1.000002,2.1200002 2.56,2.2400001 2.0399984,0.1199999 2.3600016,0.2000007 3.6000004,0.88 l 0.64,0.36 -0.64,0.4 c -0.8399992,0.4799995 -1.640001,0.7200001 -2.6400004,0.8 -1.559998,0.08 -1.68,0.1200002 -2.2,0.32 -0.799999,0.3599996 -1.32,1.1200008 -1.32,1.96 0,0.999999 0.840001,1.84 1.88,1.84 0.88,0 1.640001,-0.4800009 2.2400004,-1.4 1.0799989,-1.5999984 1.4000012,-1.9600007 2.56,-2.64 l 0.64,-0.4" font-family="Century Schoolbook L" font-stretch="normal" font-variant="normal" font-weight="bold" style="-inkscape-font-specification:'Century Schoolbook L Bold'"/></g></g><rect id="rect4178" width="5" height="11" x="8.5" y="10.5" fill="#6e96c4" fill-opacity="1" fill-rule="evenodd" stroke="#2e4e72" stroke-dasharray="none" stroke-dashoffset="0" stroke-linecap="butt" stroke-linejoin="miter" stroke-miterlimit="4" stroke-opacity="1" stroke-width="1" clip-rule="nonzero" color="#000" color-interpolation="sRGB" color-interpolation-filters="linearRGB" color-rendering="auto" display="inline" enable-background="accumulate" image-rendering="auto" opacity="1" overflow="visible" shape-rendering="auto" text-rendering="auto" visibility="visible" style="isolation:auto;mix-blend-mode:normal;solid-color:#000;solid-opacity:1"/><rect id="rect4180-2" width="11" height="7" x="11.5" y="12.5" fill="#dde3ea" fill-opacity="1" fill-rule="evenodd" stroke="#2e4e72" stroke-dasharray="none" stroke-dashoffset="0" stroke-linecap="butt" stroke-linejoin="miter" stroke-miterlimit="4" stroke-opacity="1" stroke-width="1" clip-rule="nonzero" color="#000" color-interpolation="sRGB" color-interpolation-filters="linearRGB" color-rendering="auto" display="inline" enable-background="accumulate" image-rendering="auto" opacity="1" overflow="visible" shape-rendering="auto" text-rendering="auto" visibility="visible" style="isolation:auto;mix-blend-mode:normal;solid-color:#000;solid-opacity:1"/><path id="path4197" fill="#2e4e72" fill-opacity="1" fill-rule="evenodd" stroke="#2e4e72" stroke-linecap="butt" stroke-linejoin="miter" stroke-opacity="1" stroke-width="1" d="m 11,16 -1,0"/><rect id="rect4298" width="4" height="6" x="15" y="13" fill="#aec7e2" fill-opacity="1" fill-rule="evenodd" stroke="none" stroke-dasharray="none" stroke-dashoffset="0" stroke-linecap="butt" stroke-linejoin="miter" stroke-miterlimit="4" stroke-opacity="1" stroke-width="1.5" clip-rule="nonzero" color="#000" color-interpolation="sRGB" color-interpolation-filters="linearRGB" color-rendering="auto" display="inline" enable-background="accumulate" image-rendering="auto" opacity="1" overflow="visible" shape-rendering="auto" text-rendering="auto" visibility="visible" style="isolation:auto;mix-blend-mode:normal;solid-color:#000;solid-opacity:1"/><rect id="rect4298-3" width="2" height="6" x="6" y="13" fill="#aec7e2" fill-opacity="1" fill-rule="evenodd" stroke="none" stroke-dasharray="none" stroke-dashoffset="0" stroke-linecap="butt" stroke-linejoin="miter" stroke-miterlimit="4" stroke-opacity="1" stroke-width="1.5" clip-rule="nonzero" color="#000" color-interpolation="sRGB" color-interpolation-filters="linearRGB" color-rendering="auto" display="inline" enable-background="accumulate" image-rendering="auto" opacity="1" overflow="visible" shape-rendering="auto" text-rendering="auto" visibility="visible" style="isolation:auto;mix-blend-mode:normal;solid-color:#000;solid-opacity:1"/><path id="path4335" fill="none" fill-rule="evenodd" stroke="#6e97c4" stroke-linecap="butt" stroke-linejoin="miter" stroke-opacity="1" stroke-width="1" d="m 6.5,21.5 c 0,3.204632 2.7110008,5 6,5"/><path id="path4335-5" fill="none" fill-rule="evenodd" stroke="#2e4e72" stroke-linecap="butt" stroke-linejoin="miter" stroke-opacity="1" stroke-width="1" d="m 4.5,21.5 c 0,5.350921 4.6181707,7 8,7" display="inline"/><path id="path4335-5-7" fill="none" fill-rule="evenodd" stroke="#324255" stroke-linecap="butt" stroke-linejoin="miter" stroke-opacity="1" stroke-width="1" d="m 2.5,21.5 c 0,6.319671 4.8369208,9 10,9" display="inline"/><path id="path4261-5" fill="none" fill-rule="evenodd" stroke="#2e4e72" stroke-linecap="butt" stroke-linejoin="miter" stroke-opacity="1" stroke-width="1" d="m 10.5,24 0,-3" display="inline"/></g></svg>
