<svg xmlns="http://www.w3.org/2000/svg" width="24" height="24"><g fill-rule="evenodd"><path fill="#6d97c4" stroke="#415a75" stroke-linecap="round" stroke-linejoin="round" d="m2.53 12 16.3 10.5v-21z"/><path fill="#fff" fill-opacity=".529" stroke-width="3.78" d="m4.02 12 14 9 .000431-1.41-12.9-8.3z"/></g><path fill="#e6e6e6" stroke="#505050" stroke-dashoffset="7" stroke-linecap="round" stroke-linejoin="round" stroke-width="1.04" d="m7.17 14.9a4.71 4.71 0 0 0 4.71 4.71 4.71 4.71 0 0 0 4.71 -4.71 4.71 4.71 0 0 0 -4.71 -4.71 4.71 4.71 0 0 0 -4.71 4.71z" opacity=".8"/><path fill="#ffcc30" fill-rule="evenodd" stroke="#505050" stroke-linejoin="round" stroke-width="1.04" d="m16 17.8c0 1.18-1.18 1.18-1.18 1.18l4.12 4.12 1.18-1.18z"/><path fill-rule="evenodd" stroke="#505050" stroke-linejoin="round" stroke-width="1.04" d="m16.9 18.7-1.18-1.18-1.18 1.18 1.18 1.18z"/><path fill="#fcffff" fill-rule="evenodd" d="m14.5 12.2c-1.18-1.77-2.62-2-3.53-1.18-.917.823 1.18.589 2.36 1.77 1.18 1.18 0 3.53 1.18 3.53s1.18-2.36 0-4.12z" opacity=".7"/><path stroke="#fcffff" stroke-linecap="round" stroke-linejoin="round" stroke-width="1.04" d="m19.2 21.7-2.36-2.36" opacity=".5"/></svg>
