<svg xmlns="http://www.w3.org/2000/svg" width="24" height="24"><path fill="#505050" stroke="#505050" stroke-width=".3" d="m19.9 8.85h-4.19l-1.24 5.27h3.88v1.74h-4.32l-1.23 5.01h-1.63l1.23-5.01h-3.4l-1.23 5.01h-1.63l1.23-5.01h-3.75v-1.74h4.19l1.24-5.27h-3.88v-1.74h4.32l1.32-5.44h1.63l-1.32 5.44h3.4l1.32-5.44h1.63l-1.32 5.44h3.75zm-5.78-.0258h-3.45l-1.26 5.32h3.45z"/><path fill="#c00" stroke="#c00" stroke-linecap="square" stroke-linejoin="round" d="m11.4 11.5h8.29c.474 0 .857.384.857.857v8.29c0 .474-.384.857-.857.857h-8.29c-.474 0-.857-.384-.857-.857v-8.29c0-.473.384-.857.857-.857z" opacity=".9"/><path fill="#fcffff" d="m10.5 16.5h10v-3.33c0-1.67 0-1.67-2.5-1.67h-5.83c-1.67 0-1.67 0-1.67 1.67v3.33z" opacity=".5"/><path fill="none" stroke="#eeeeec" stroke-linecap="round" stroke-width="1.5" d="m13.4 18.7 4.25-4.3"/><ellipse cx="15.5" cy="16.5" fill="none" stroke="#eeeeec" stroke-linecap="round" stroke-width="1.69" rx="4.16" ry="4.16"/></svg>