<svg xmlns="http://www.w3.org/2000/svg" width="24" height="24"><path fill="#fff" fill-rule="evenodd" stroke="#979797" stroke-linejoin="round" d="m3.5 22.5v-21h10l5 5v16z"/><path fill="#f0f0f0" fill-rule="evenodd" stroke="#979797" stroke-linejoin="round" d="m13.5 1.5v5h5z"/><rect width="6" height="2" x="5" y="6" fill="#979797" rx="0" ry="0"/><rect width="12" height="2" x="5" y="10" fill="#979797" rx="0" ry="0"/><rect width="12" height="2" x="5" y="14" fill="#979797" rx="0" ry="0"/><rect width="12" height="2" x="5" y="18" fill="#979797" rx="0" ry="0"/><g stroke-dashoffset=".5" stroke-linejoin="round"><path fill="#505050" stroke="#505050" stroke-linecap="round" stroke-width=".49" d="m13.9 18.9 3.4 1.96-4.06 2.94z" overflow="visible"/><path fill="#de6b37" stroke="#c04317" stroke-linecap="round" stroke-width=".49" d="m19.5 9.21 3.4 1.96-5.56 9.63-3.4-1.96 5.56-9.63" overflow="visible"/><path fill="none" stroke="#f8b008" stroke-width="1.38" d="m20.5 10.7-5.16 8.94" opacity=".5" overflow="visible"/><path fill-opacity=".588" stroke="#632923" stroke-width="1.41" d="m21.7 11.3-5.33 9.12" opacity=".25" overflow="visible"/><path fill="#fc894f" stroke="#a7481e" stroke-linecap="round" stroke-width=".49" d="m21.4 11.1-5.23 9.06" opacity=".5"/><path fill="#969696" stroke="#969696" stroke-linecap="square" stroke-width=".327" d="m14.1 22.9 2.75-2.15-1.13-.653z" overflow="visible"/><path fill="#db562d" stroke="#9b3819" stroke-linecap="round" stroke-width=".49" d="m20 10.3-5.23 9.06" opacity=".5"/><path fill="#e6e6e6" stroke="#969696" stroke-linecap="round" stroke-width=".327" d="m19.7 8.5 3.66 2.11-.712 1.23-3.66-2.11z" overflow="visible"/><path fill="#e6e6e6" stroke="#e6e6e6" stroke-linecap="square" stroke-width=".327" d="m13.6 22.8.537-3.54 1.13.653z" overflow="visible"/></g></svg>
