<svg xmlns="http://www.w3.org/2000/svg" xmlns:svg="http://www.w3.org/2000/svg" id="svg5692" width="32" height="32" version="1.1"><metadata id="metadata5697"/><g id="layer1"><g id="g3771" display="inline" transform="translate(2,7.8666667)"><path id="path3685" fill="#82a0b4" fill-rule="evenodd" stroke="#82a0b4" stroke-linecap="butt" stroke-linejoin="miter" stroke-opacity="1" stroke-width="1" d="m 9.2,12.3 0,-8.4 c 0,0 0,-1.2 4.8,-1.2 4.8,0 4.8,1.2 4.8,1.2 l 0,8.4 c 0,0 0,1.2 -4.8,1.2 -4.8,0 -4.742286,-1.146586 -4.8,-1.2 z"/><path id="path3669" fill="#3c5a6e" fill-opacity="1" fill-rule="evenodd" stroke="none" stroke-width="1" d="m 8,4.5 c 2.4,2.4 9.6,2.4 12,0 0,0 0,-1.2 0,-1.2 -2.4,2.4 -9.6,2.4 -12,0 0,0 0,1.2 0,1.2 z" display="inline" enable-background="accumulate" overflow="visible" visibility="visible" style="marker:none"/><path id="path3671" fill="#3c5a6e" fill-opacity="1" fill-rule="evenodd" stroke="none" stroke-width="1" d="m 20,3.3 c -2.4,-2.4 -9.6,-2.4 -12,0 0,0 0,1.2 0,1.2 2.4,-2.4 9.6,-2.4 12,0 0,0 0,-1.2 0,-1.2 z" display="inline" enable-background="accumulate" overflow="visible" visibility="visible" style="marker:none"/><path id="path3678" fill="#3c5a6e" fill-opacity="1" fill-rule="evenodd" stroke="none" stroke-width="1" d="m 8,12.9 c 2.4,2.4 9.6,2.4 12,0 0,0 0,-1.2 0,-1.2 -2.4,2.4 -9.6,2.4 -12,0 0,0 0,1.2 0,1.2 z" display="inline" enable-background="accumulate" overflow="visible" visibility="visible" style="marker:none"/><path id="path3680" fill="#3c5a6e" fill-opacity="1" fill-rule="evenodd" stroke="none" stroke-width="1" d="m 8,8.7 c 2.4,2.4 9.6,2.4 12,0 0,0 0,-1.2 0,-1.2 -2.4,2.4 -9.6,2.4 -12,0 0,0 0,1.2 0,1.2 z" display="inline" enable-background="accumulate" overflow="visible" visibility="visible" style="marker:none"/><path id="path3683" fill="#3c5a6e" fill-rule="evenodd" stroke="#3c5a6e" stroke-linecap="butt" stroke-linejoin="miter" stroke-opacity="1" stroke-width="1" d="m 19.5,12.5 0,-8"/><path id="path3769" fill="#3c5a6e" fill-rule="evenodd" stroke="#3c5a6e" stroke-linecap="butt" stroke-linejoin="miter" stroke-opacity="1" stroke-width="1" d="m 8.5,12.5 0,-8"/><path id="path3689" fill="#fcffff" fill-rule="evenodd" stroke="none" d="m 8,3.3 c 0,0 0,9.6 0,9.6 3.6,2.4 6,1.8 6,1.8 0,0 0,-9.6 0,-9.6 -1.2,0 -2.4,0.6 -6,-1.8 z" opacity=".2"/></g><rect id="rect7388" width="11" height="11" x="21" y="21" fill="#204a87" fill-opacity="1" fill-rule="nonzero" stroke="none" display="inline" enable-background="new" opacity=".9" ry="1.881"/><path id="path4077" fill="#fcffff" fill-rule="evenodd" stroke="none" d="m 21.5,26.999851 10,0 c 0,0 0,-1.099971 0,-3.299911 C 31.5,21.5 30.388888,21.5 26.5,21.5 c -3.888888,0 -5,0 -5,2.19994 0,2.19994 0.03588,3.351238 0,3.299911 z" display="inline" enable-background="new" opacity=".3"/><path id="path4884" fill="#eeeeec" stroke="#eeeeec" stroke-linecap="round" stroke-linejoin="round" stroke-opacity="1" stroke-width="1" d="m 22.5,26.5 4,0" display="inline" enable-background="new"/><path id="path5690" fill="none" stroke="#eeeeec" stroke-linecap="round" stroke-linejoin="round" stroke-opacity="1" stroke-width="1" d="m 30.5,24.5 c -3,0 -4,0 -4,2 0,2 1,2 4,2" display="inline" enable-background="new"/></g></svg>
