<svg xmlns="http://www.w3.org/2000/svg" xmlns:svg="http://www.w3.org/2000/svg" id="svg5692" width="32" height="32" version="1.1"><metadata id="metadata5697"/><g id="layer2" display="inline"><path id="path14788" fill="#729fcf" fill-opacity="1" fill-rule="nonzero" stroke="#729fcf" stroke-dasharray="none" stroke-dashoffset="0" stroke-linecap="square" stroke-linejoin="round" stroke-miterlimit="4" stroke-opacity="1" stroke-width="1" d="m 6.5,7.5 19,0 0,15 -19,0 z" color="#000" display="inline" enable-background="accumulate" overflow="visible" visibility="visible" style="marker:none"/><path id="path14757" fill="#729fcf" fill-opacity="1" fill-rule="nonzero" stroke="#204a87" stroke-dasharray="none" stroke-dashoffset="0" stroke-linecap="square" stroke-linejoin="round" stroke-miterlimit="4" stroke-opacity="1" stroke-width="1" d="m 25.5,7.5 a 9.5,2 0 1 1 -19,0 9.5,2 0 1 1 19,0 z" color="#000" display="inline" enable-background="accumulate" overflow="visible" visibility="visible" style="marker:none"/><path id="path14767" fill="#729fcf" fill-opacity=".784" fill-rule="nonzero" stroke="#204a87" stroke-dasharray="none" stroke-dashoffset="0" stroke-linecap="round" stroke-linejoin="round" stroke-miterlimit="4" stroke-opacity="1" stroke-width="1" d="m 6.5,7.5 0,15" color="#000" display="inline" enable-background="accumulate" overflow="visible" visibility="visible" style="marker:none"/><path id="path14786" fill="#729fcf" fill-opacity=".784" fill-rule="nonzero" stroke="#204a87" stroke-dasharray="none" stroke-dashoffset="0" stroke-linecap="round" stroke-linejoin="round" stroke-miterlimit="4" stroke-opacity="1" stroke-width="1" d="m 25.5,7.5 0,15" color="#000" display="inline" enable-background="accumulate" overflow="visible" visibility="visible" style="marker:none"/><path id="path14836" fill="#729fcf" stroke="#204a87" stroke-linecap="round" stroke-linejoin="round" stroke-opacity="1" stroke-width="1" d="m 6.5,12.5 c 6,3 13,3 19,0"/><path id="path14838" fill="#729fcf" stroke="#204a87" stroke-linecap="round" stroke-linejoin="round" stroke-opacity="1" stroke-width="1" d="m 6.5,17.5 c 6,3 13,3 19,0"/><path id="path14840" fill="#729fcf" stroke="#204a87" stroke-linecap="round" stroke-linejoin="round" stroke-opacity="1" stroke-width="1" d="m 6.5,22.5 c 6,3 13,3 19,0"/><path id="path13973-2" fill="#fcffff" fill-rule="evenodd" stroke="none" d="m 6.0695622,7.165215 c 0,0 -0.047827,13.573917 -0.047827,15.573917 3.5251728,2.182423 5.6326868,2.009567 5.6326868,2.009567 L 11.615088,9.1020812 C 10.475651,8.1212712 11.619842,6.1996533 17.452174,5.117389 15.409649,4.992041 7.0102811,4.640104 6.0695622,7.165215 z" display="inline" opacity=".2"/></g><g id="layer1" display="inline"><g id="g14680" display="inline"><rect stroke-linejoin="round" style="marker:none" id="rect14672" width="12" height="12" x="19.5" y="19.5" fill="#8f5902" fill-opacity="1" fill-rule="nonzero" stroke="#8f5902" stroke-dasharray="none" stroke-dashoffset="0" stroke-linecap="square" stroke-miterlimit="4" stroke-opacity="1" stroke-width="1" color="#000" display="inline" enable-background="accumulate" opacity=".9" overflow="visible" ry=".857" visibility="visible"/><path id="path14674" fill="#fcffff" fill-rule="evenodd" stroke="none" d="m 19.5,25.5 12,0 0,-4 c 0,-2 0,-2 -3,-2 -0.698149,0 -6.072237,0 -7,0 -2,0 -2,0 -2,2 0,1 0,2 0,4 z" display="inline" enable-background="new" opacity=".3"/><path id="path14676" fill="#5c3566" stroke="#eeeeec" stroke-dasharray="none" stroke-linecap="round" stroke-linejoin="miter" stroke-miterlimit="4" stroke-opacity="1" stroke-width="1.706" d="m 20.5,25.5 5,0"/><path id="path14678" fill="none" stroke="#eeeeec" stroke-dasharray="none" stroke-linecap="round" stroke-linejoin="miter" stroke-miterlimit="4" stroke-opacity="1" stroke-width="1.706" d="m 29.5,28.5 c -5,0 -5,-6 0,-6"/></g></g></svg>
