<svg xmlns="http://www.w3.org/2000/svg" xmlns:svg="http://www.w3.org/2000/svg" id="svg5692" width="32" height="32" version="1.1"><metadata id="metadata5697"/><g id="layer2" display="inline"><path id="path14788" fill="#729fcf" fill-opacity="1" fill-rule="nonzero" stroke="#729fcf" stroke-dasharray="none" stroke-dashoffset="0" stroke-linecap="square" stroke-linejoin="round" stroke-miterlimit="4" stroke-opacity="1" stroke-width="1" d="m 6.5,7.5 19,0 0,15 -19,0 z" color="#000" display="inline" enable-background="accumulate" overflow="visible" visibility="visible" style="marker:none"/><path id="path14757" fill="#729fcf" fill-opacity="1" fill-rule="nonzero" stroke="#204a87" stroke-dasharray="none" stroke-dashoffset="0" stroke-linecap="square" stroke-linejoin="round" stroke-miterlimit="4" stroke-opacity="1" stroke-width="1" d="m 25.5,7.5 a 9.5,2 0 1 1 -19,0 9.5,2 0 1 1 19,0 z" color="#000" display="inline" enable-background="accumulate" overflow="visible" visibility="visible" style="marker:none"/><path id="path14767" fill="#729fcf" fill-opacity=".784" fill-rule="nonzero" stroke="#204a87" stroke-dasharray="none" stroke-dashoffset="0" stroke-linecap="round" stroke-linejoin="round" stroke-miterlimit="4" stroke-opacity="1" stroke-width="1" d="m 6.5,7.5 0,15" color="#000" display="inline" enable-background="accumulate" overflow="visible" visibility="visible" style="marker:none"/><path id="path14786" fill="#729fcf" fill-opacity=".784" fill-rule="nonzero" stroke="#204a87" stroke-dasharray="none" stroke-dashoffset="0" stroke-linecap="round" stroke-linejoin="round" stroke-miterlimit="4" stroke-opacity="1" stroke-width="1" d="m 25.5,7.5 0,15" color="#000" display="inline" enable-background="accumulate" overflow="visible" visibility="visible" style="marker:none"/><path id="path14836" fill="#729fcf" stroke="#204a87" stroke-linecap="round" stroke-linejoin="round" stroke-opacity="1" stroke-width="1" d="m 6.5,12.5 c 6,3 13,3 19,0"/><path id="path14838" fill="#729fcf" stroke="#204a87" stroke-linecap="round" stroke-linejoin="round" stroke-opacity="1" stroke-width="1" d="m 6.5,17.5 c 6,3 13,3 19,0"/><path id="path14840" fill="#729fcf" stroke="#204a87" stroke-linecap="round" stroke-linejoin="round" stroke-opacity="1" stroke-width="1" d="m 6.5,22.5 c 6,3 13,3 19,0"/><path id="path13973-2" fill="#fcffff" fill-rule="evenodd" stroke="none" d="m 6.0695622,7.165215 c 0,0 -0.047827,13.573917 -0.047827,15.573917 3.5251728,2.182423 5.6326868,2.009567 5.6326868,2.009567 L 11.615088,9.1020812 C 10.475651,8.1212712 11.619842,6.1996533 17.452174,5.117389 15.409649,4.992041 7.0102811,4.640104 6.0695622,7.165215 z" display="inline" opacity=".2"/></g><g id="layer1" display="inline"><g id="g14742" transform="translate(0,-9)"><rect id="rect14716" width="25" height="8" x="3.5" y="21.5" fill="#eeeeec" fill-opacity=".784" fill-rule="nonzero" stroke="#555753" stroke-dasharray="none" stroke-dashoffset="0" stroke-linecap="square" stroke-linejoin="round" stroke-miterlimit="4" stroke-opacity="1" stroke-width="1" color="#000" display="inline" enable-background="accumulate" overflow="visible" ry=".857" visibility="visible" style="marker:none"/><text font-stretch="normal" style="line-height:125%;-inkscape-font-specification:Monospace" id="text14722" x="7.492" y="31.945" fill="#2e3436" fill-opacity="1" stroke="none" font-family="Monospace" font-size="14" font-style="normal" font-variant="normal" font-weight="normal" letter-spacing="0" word-spacing="0" xml:space="preserve"><tspan id="tspan14724" x="7.492" y="31.945" fill="#2e3436" font-family="Georgia" font-size="12" font-stretch="normal" font-style="normal" font-variant="normal" font-weight="normal" style="-inkscape-font-specification:Georgia">***</tspan></text></g></g></svg>