<svg xmlns="http://www.w3.org/2000/svg" id="/putrela0/mpasol/blazek/inst/qgiscvs07/plugins/grass/modules/r.buffer.1" width="500" height="500" x="0" y="0"><rect width="500" height="500" x="0" y="0" fill="#FFF" stroke="#000" stroke-width="0"/><g fill="none" stroke="#000" stroke-width=".9"><clipPath id="clip1"><rect width="500" height="500" x="0" y="0"/></clipPath><g clip-path="url(#clip1)"><polygon fill="#00F" stroke="#000" stroke-width="0" points="381 126 381 86 421 86 421 126 381 126"/><polygon fill="none" stroke="#00F" stroke-width="15" points="381 126 381 86 421 86 421 126 381 126"/><polygon fill="#00F" stroke="#000" stroke-width="0" points="342 206 342 126 381 126 381 206 342 206"/><polygon fill="none" stroke="#00F" stroke-width="15" points="342 206 342 126 381 126 381 206 342 206"/><polygon fill="#00F" stroke="#000" stroke-width="0" points="147 286 147 246 264 246 264 206 342 206 342 246 303 246 303 286 147 286"/><polygon fill="none" stroke="#00F" stroke-width="15" points="147 286 147 246 264 246 264 206 342 206 342 246 303 246 303 286 147 286"/><polygon fill="#00F" stroke="#000" stroke-width="0" points="108 367 108 286 147 286 147 367 108 367"/><polygon fill="none" stroke="#00F" stroke-width="15" points="108 367 108 286 147 286 147 367 108 367"/><polygon fill="#00F" stroke="#000" stroke-width="0" points="108 367 108 407 68 407 68 367 108 367"/><polygon fill="none" stroke="#00F" stroke-width="15" points="108 367 108 407 68 407 68 367 108 367"/></g></g></svg>
