<svg xmlns="http://www.w3.org/2000/svg" id="/hardmnt/janacek0/ssi/blazek/inst/qgis/cvs/plugins/grass/modules/r.to.vect.area.1" width="500" height="500" x="0" y="0"><rect width="500" height="500" x="0" y="0" fill="#FFF" stroke="#000" stroke-width="0"/><g fill="none" stroke="#000" stroke-width=".9"><polygon fill="#969696" stroke="#000" stroke-width="0" points="376 376 173 376 173 326 123 326 123 173 173 173 173 123 376 123 376 224 427 224 427 275 376 275 376 376" transform="translate(0.331263 0.331263)"/><polygon fill="none" stroke="#969696" stroke-width="15" points="376 376 173 376 173 326 123 326 123 173 173 173 173 123 376 123 376 224 427 224 427 275 376 275 376 376" transform="translate(0.331263 0.331263)"/></g></svg>
