<svg xmlns="http://www.w3.org/2000/svg" id="/hardmnt/janacek0/ssi/blazek/inst/qgis/cvs/plugins/grass/modules/r.to.vect.point.1" width="500" height="500" x="0" y="0"><rect width="500" height="500" x="0" y="0" fill="#FFF" stroke="#000" stroke-width="0"/><g fill="none" stroke="#000" stroke-width=".9"><polygon fill="#969696" stroke="#000" stroke-width="0" points="253 191 163 191 163 101 253 101 253 191"/><polygon fill="none" stroke="#969696" stroke-width="15" points="253 191 163 191 163 101 253 101 253 191"/><polygon fill="#969696" stroke="#000" stroke-width="0" points="433 281 343 281 343 191 433 191 433 281"/><polygon fill="none" stroke="#969696" stroke-width="15" points="433 281 343 281 343 191 433 191 433 281"/><polygon fill="#969696" stroke="#000" stroke-width="0" points="163 371 73 371 73 281 163 281 163 371"/><polygon fill="none" stroke="#969696" stroke-width="15" points="163 371 73 371 73 281 163 281 163 371"/></g></svg>
