<svg xmlns="http://www.w3.org/2000/svg" id="/hardmnt/janacek0/ssi/blazek/inst/qgis/cvs/plugins/grass/modules/r.to.vect.area.2" width="500" height="500" x="0" y="0"><rect width="500" height="500" x="0" y="0" fill="#FFF" stroke="#000" stroke-width="0"/><g fill="none" stroke="#000" stroke-width=".9"><polygon fill="#969696" stroke="#000" stroke-width="0" points="376 376 351 376 199 376 173 351 173 351 148 326 148 326 123 300 123 199 148 173 148 173 173 148 173 148 199 123 351 123 376 148 376 199 402 224 402 224 427 249 427 249 402 275 402 275 376 300 376 351 376 376 376 376" transform="translate(0.331263 0.331263)"/><polygon fill="none" stroke="#000" stroke-width="15" points="376 376 351 376 199 376 173 351 173 351 148 326 148 326 123 300 123 199 148 173 148 173 173 148 173 148 199 123 351 123 376 148 376 199 402 224 402 224 427 249 427 249 402 275 402 275 376 300 376 351 376 376 376 376" transform="translate(0.331263 0.331263)"/></g></svg>