<svg xmlns="http://www.w3.org/2000/svg" id="/hardmnt/janacek0/ssi/blazek/inst/qgis/cvs/plugins/grass/modules/r.to.vect.line.1" width="500" height="500" x="0" y="0"><rect width="500" height="500" x="0" y="0" fill="#FFF" stroke="#000" stroke-width="0"/><g fill="none" stroke="#000" stroke-width=".9"><polygon fill="#969696" stroke="#000" stroke-width="0" points="347 143 347 75 415 75 415 143 347 143"/><polygon fill="none" stroke="#969696" stroke-width="15" points="347 143 347 75 415 75 415 143 347 143"/><polygon fill="#969696" stroke="#000" stroke-width="0" points="279 212 279 143 347 143 347 212 279 212"/><polygon fill="none" stroke="#969696" stroke-width="15" points="279 212 279 143 347 143 347 212 279 212"/><polygon fill="#969696" stroke="#000" stroke-width="0" points="210 280 210 212 279 212 279 280 210 280"/><polygon fill="none" stroke="#969696" stroke-width="15" points="210 280 210 212 279 212 279 280 210 280"/><polygon fill="#969696" stroke="#000" stroke-width="0" points="142 348 142 280 210 280 210 348 142 348"/><polygon fill="none" stroke="#969696" stroke-width="15" points="142 348 142 280 210 280 210 348 142 348"/><polygon fill="#969696" stroke="#000" stroke-width="0" points="142 348 142 416 74 416 74 348 142 348"/><polygon fill="none" stroke="#969696" stroke-width="15" points="142 348 142 416 74 416 74 348 142 348"/></g></svg>