<svg xmlns="http://www.w3.org/2000/svg" id="/putrela0/mpasol/blazek/inst/qgiscvs07/plugins/grass/modules/v.delaunay.area.2" width="500" height="500" x="0" y="0"><rect width="500" height="500" x="0" y="0" fill="#FFF" stroke="#000" stroke-width="0"/><g fill="none" stroke="#000" stroke-width=".9"><clipPath id="clip1"><rect width="500" height="500" x="0" y="0"/></clipPath><g clip-path="url(#clip1)"><polygon fill="#AFF" stroke="#000" stroke-width="0" points="409 261 238 240 155 117 409 261"/><polygon fill="none" stroke="#00F" stroke-width="15" points="409 261 238 240 155 117 409 261"/><polygon fill="#AFF" stroke="#000" stroke-width="0" points="238 240 409 261 92 372 238 240"/><polygon fill="none" stroke="#00F" stroke-width="15" points="238 240 409 261 92 372 238 240"/><polygon fill="#AFF" stroke="#000" stroke-width="0" points="238 240 92 372 155 117 238 240"/><polygon fill="none" stroke="#00F" stroke-width="15" points="238 240 92 372 155 117 238 240"/></g></g></svg>