<svg xmlns="http://www.w3.org/2000/svg" id="/putrela0/mpasol/blazek/inst/qgiscvs07/plugins/grass/modules/v.mkgrid.1" width="500" height="500" x="0" y="0"><rect width="500" height="500" x="0" y="0" fill="#FFF" stroke="#000" stroke-width="0"/><g fill="none" stroke="#000" stroke-width=".9"><clipPath id="clip1"><rect width="500" height="500" x="0" y="0"/></clipPath><g clip-path="url(#clip1)"><polygon fill="#AFF" stroke="#000" stroke-width="0" points="70 466 34 466 34 358 70 358 106 358 142 358 142 466 106 466 70 466"/><polygon fill="none" stroke="#00F" stroke-width="15" points="70 466 34 466 34 358 70 358 106 358 142 358 142 466 106 466 70 466"/><polygon fill="#AFF" stroke="#000" stroke-width="0" points="178 466 142 466 142 358 178 358 214 358 250 358 250 466 214 466 178 466"/><polygon fill="none" stroke="#00F" stroke-width="15" points="178 466 142 466 142 358 178 358 214 358 250 358 250 466 214 466 178 466"/><polygon fill="#AFF" stroke="#000" stroke-width="0" points="286 466 250 466 250 358 286 358 322 358 358 358 358 466 322 466 286 466"/><polygon fill="none" stroke="#00F" stroke-width="15" points="286 466 250 466 250 358 286 358 322 358 358 358 358 466 322 466 286 466"/><polygon fill="#AFF" stroke="#000" stroke-width="0" points="394 466 358 466 358 358 394 358 430 358 466 358 466 466 430 466 394 466"/><polygon fill="none" stroke="#00F" stroke-width="15" points="394 466 358 466 358 358 394 358 430 358 466 358 466 466 430 466 394 466"/><polygon fill="#AFF" stroke="#000" stroke-width="0" points="70 358 34 358 34 250 70 250 106 250 142 250 142 358 106 358 70 358"/><polygon fill="none" stroke="#00F" stroke-width="15" points="70 358 34 358 34 250 70 250 106 250 142 250 142 358 106 358 70 358"/><polygon fill="#AFF" stroke="#000" stroke-width="0" points="178 358 142 358 142 250 178 250 214 250 250 250 250 358 214 358 178 358"/><polygon fill="none" stroke="#00F" stroke-width="15" points="178 358 142 358 142 250 178 250 214 250 250 250 250 358 214 358 178 358"/><polygon fill="#AFF" stroke="#000" stroke-width="0" points="286 358 250 358 250 250 286 250 322 250 358 250 358 358 322 358 286 358"/><polygon fill="none" stroke="#00F" stroke-width="15" points="286 358 250 358 250 250 286 250 322 250 358 250 358 358 322 358 286 358"/><polygon fill="#AFF" stroke="#000" stroke-width="0" points="394 358 358 358 358 250 394 250 430 250 466 250 466 358 430 358 394 358"/><polygon fill="none" stroke="#00F" stroke-width="15" points="394 358 358 358 358 250 394 250 430 250 466 250 466 358 430 358 394 358"/><polygon fill="#AFF" stroke="#000" stroke-width="0" points="70 250 34 250 34 142 70 142 106 142 142 142 142 250 106 250 70 250"/><polygon fill="none" stroke="#00F" stroke-width="15" points="70 250 34 250 34 142 70 142 106 142 142 142 142 250 106 250 70 250"/><polygon fill="#AFF" stroke="#000" stroke-width="0" points="178 250 142 250 142 142 178 142 214 142 250 142 250 250 214 250 178 250"/><polygon fill="none" stroke="#00F" stroke-width="15" points="178 250 142 250 142 142 178 142 214 142 250 142 250 250 214 250 178 250"/><polygon fill="#AFF" stroke="#000" stroke-width="0" points="286 250 250 250 250 142 286 142 322 142 358 142 358 250 322 250 286 250"/><polygon fill="none" stroke="#00F" stroke-width="15" points="286 250 250 250 250 142 286 142 322 142 358 142 358 250 322 250 286 250"/><polygon fill="#AFF" stroke="#000" stroke-width="0" points="394 250 358 250 358 142 394 142 430 142 466 142 466 250 430 250 394 250"/><polygon fill="none" stroke="#00F" stroke-width="15" points="394 250 358 250 358 142 394 142 430 142 466 142 466 250 430 250 394 250"/><polygon fill="#AFF" stroke="#000" stroke-width="0" points="70 142 34 142 34 34 70 34 106 34 142 34 142 142 106 142 70 142"/><polygon fill="none" stroke="#00F" stroke-width="15" points="70 142 34 142 34 34 70 34 106 34 142 34 142 142 106 142 70 142"/><polygon fill="#AFF" stroke="#000" stroke-width="0" points="178 142 142 142 142 34 178 34 214 34 250 34 250 142 214 142 178 142"/><polygon fill="none" stroke="#00F" stroke-width="15" points="178 142 142 142 142 34 178 34 214 34 250 34 250 142 214 142 178 142"/><polygon fill="#AFF" stroke="#000" stroke-width="0" points="286 142 250 142 250 34 286 34 322 34 358 34 358 142 322 142 286 142"/><polygon fill="none" stroke="#00F" stroke-width="15" points="286 142 250 142 250 34 286 34 322 34 358 34 358 142 322 142 286 142"/><polygon fill="#AFF" stroke="#000" stroke-width="0" points="394 142 358 142 358 34 394 34 430 34 466 34 466 142 430 142 394 142"/><polygon fill="none" stroke="#00F" stroke-width="15" points="394 142 358 142 358 34 394 34 430 34 466 34 466 142 430 142 394 142"/></g></g></svg>
