<svg xmlns="http://www.w3.org/2000/svg" id="/hardmnt/tigre0/ssi/blazek/devel/qgis/cvs/plugins/grass/modules/v.net.salesman.2" width="500" height="500" x="0" y="0"><rect width="500" height="500" x="0" y="0" fill="#FFF" stroke="#000" stroke-width="0"/><g fill="none" stroke="#000" stroke-width=".9"><clipPath id="clip1"><rect width="495" height="495" x="0" y="0"/></clipPath><g clip-path="url(#clip1)"><polyline fill="none" stroke="#000" stroke-width="15" points="257 224 132 112"/><polyline fill="none" stroke="#000" stroke-width="15" points="257 224 389 220"/><polyline fill="none" stroke="#000" stroke-width="15" points="257 224 214 381"/><polyline fill="none" stroke="#000" stroke-width="15" points="214 381 93 272"/><polyline fill="none" stroke="#000" stroke-width="15" points="93 272 132 112"/><polyline fill="none" stroke="#000" stroke-width="15" points="132 112 27 9"/><polyline fill="none" stroke="#000" stroke-width="15" points="132 112 243 78"/><polyline fill="none" stroke="#000" stroke-width="15" points="243 78 352 103"/><polyline fill="none" stroke="#000" stroke-width="15" points="352 103 389 220"/><polyline fill="none" stroke="#000" stroke-width="15" points="352 103 465 17"/><polyline fill="none" stroke="#000" stroke-width="15" points="243 78 237 14"/><polyline fill="none" stroke="#000" stroke-width="15" points="389 220 355 375"/><polyline fill="none" stroke="#000" stroke-width="15" points="355 375 214 381"/><polyline fill="none" stroke="#000" stroke-width="15" points="355 375 442 483"/><polyline fill="none" stroke="#000" stroke-width="15" points="214 381 122 468"/><polyline fill="none" stroke="#000" stroke-width="15" points="93 272 30 306"/><polyline fill="none" stroke="#000" stroke-width="15" points="389 220 471 217"/><polyline fill="none" stroke="red" stroke-width="15" points="214 381 93 272"/><polyline fill="none" stroke="red" stroke-width="15" points="93 272 132 112"/><polyline fill="none" stroke="red" stroke-width="15" points="132 112 243 78"/><polyline fill="none" stroke="red" stroke-width="15" points="243 78 352 103"/><polyline fill="none" stroke="red" stroke-width="15" points="352 103 389 220"/><polyline fill="none" stroke="red" stroke-width="15" points="389 220 355 375"/><polyline fill="none" stroke="red" stroke-width="15" points="355 375 214 381"/></g></g></svg>