<svg xmlns="http://www.w3.org/2000/svg" id="/hardmnt/tigre0/ssi/blazek/devel/qgis/cvs/plugins/grass/modules/v.net.iso.2" width="500" height="500" x="0" y="0"><rect width="500" height="500" x="0" y="0" fill="#FFF" stroke="#000" stroke-width="0"/><g fill="none" stroke="#000" stroke-width=".9"><clipPath id="clip1"><rect width="495" height="495" x="0" y="0"/></clipPath><g clip-path="url(#clip1)"><polyline fill="none" stroke="#000" stroke-width="15" points="257 224 132 112"/><polyline fill="none" stroke="#000" stroke-width="15" points="257 224 389 220"/><polyline fill="none" stroke="#000" stroke-width="15" points="257 224 214 381"/><polyline fill="none" stroke="#000" stroke-width="15" points="214 381 93 272"/><polyline fill="none" stroke="#000" stroke-width="15" points="93 272 132 112"/><polyline fill="none" stroke="#000" stroke-width="15" points="132 112 27 9"/><polyline fill="none" stroke="#000" stroke-width="15" points="132 112 243 78"/><polyline fill="none" stroke="#000" stroke-width="15" points="243 78 352 103"/><polyline fill="none" stroke="#000" stroke-width="15" points="352 103 389 220"/><polyline fill="none" stroke="#000" stroke-width="15" points="352 103 465 17"/><polyline fill="none" stroke="#000" stroke-width="15" points="243 78 237 14"/><polyline fill="none" stroke="#000" stroke-width="15" points="389 220 355 375"/><polyline fill="none" stroke="#000" stroke-width="15" points="355 375 214 381"/><polyline fill="none" stroke="#000" stroke-width="15" points="355 375 442 483"/><polyline fill="none" stroke="#000" stroke-width="15" points="214 381 122 468"/><polyline fill="none" stroke="#000" stroke-width="15" points="93 272 30 306"/><polyline fill="none" stroke="#000" stroke-width="15" points="389 220 471 217"/><polyline fill="none" stroke="red" stroke-width="15" points="243 78 315 94"/><polyline fill="none" stroke="red" stroke-width="15" points="243 78 237 14"/><polyline fill="none" stroke="red" stroke-width="15" points="173 99 243 78"/><polyline fill="none" stroke="red" stroke-width="15" points="371 304 355 375"/><polyline fill="none" stroke="red" stroke-width="15" points="355 375 401 432"/><polyline fill="none" stroke="red" stroke-width="15" points="355 375 281 378"/><polyline fill="none" stroke="red" stroke-width="15" points="148 321 93 272"/><polyline fill="none" stroke="red" stroke-width="15" points="93 272 110 201"/><polyline fill="none" stroke="red" stroke-width="15" points="93 272 30 306"/><polyline fill="none" stroke="#0F0" stroke-width="15" points="315 94 352 103"/><polyline fill="none" stroke="#0F0" stroke-width="15" points="352 103 380 81"/><polyline fill="none" stroke="#0F0" stroke-width="15" points="132 112 173 99"/><polyline fill="none" stroke="#0F0" stroke-width="15" points="132 112 110 91"/><polyline fill="none" stroke="#0F0" stroke-width="15" points="352 103 363 136"/><polyline fill="none" stroke="#0F0" stroke-width="15" points="387 232 371 304"/><polyline fill="none" stroke="#0F0" stroke-width="15" points="401 432 442 483"/><polyline fill="none" stroke="#0F0" stroke-width="15" points="281 378 214 381"/><polyline fill="none" stroke="#0F0" stroke-width="15" points="214 381 209 377"/><polyline fill="none" stroke="#0F0" stroke-width="15" points="202 371 148 321"/><polyline fill="none" stroke="#0F0" stroke-width="15" points="110 201 132 112"/><polyline fill="none" stroke="#0F0" stroke-width="15" points="214 381 209 385"/><polyline fill="none" stroke="#0F0" stroke-width="15" points="154 132 132 112"/><polyline fill="none" stroke="#0F0" stroke-width="15" points="215 375 214 381"/><polyline fill="none" stroke="#00F" stroke-width="15" points="380 81 465 17"/><polyline fill="none" stroke="#00F" stroke-width="15" points="110 91 27 9"/><polyline fill="none" stroke="#00F" stroke-width="15" points="389 220 471 217"/><polyline fill="none" stroke="#00F" stroke-width="15" points="363 136 389 220"/><polyline fill="none" stroke="#00F" stroke-width="15" points="389 220 387 232"/><polyline fill="none" stroke="#00F" stroke-width="15" points="209 377 202 371"/><polyline fill="none" stroke="#00F" stroke-width="15" points="209 385 122 468"/><polyline fill="none" stroke="#00F" stroke-width="15" points="257 224 389 220"/><polyline fill="none" stroke="#00F" stroke-width="15" points="257 224 154 132"/><polyline fill="none" stroke="#00F" stroke-width="15" points="257 224 215 375"/></g></g></svg>