<svg xmlns="http://www.w3.org/2000/svg" id="/hardmnt/tigre0/ssi/blazek/devel/qgis/cvs/plugins/grass/modules/v.net.alloc.2" width="500" height="500" x="0" y="0"><rect width="500" height="500" x="0" y="0" fill="#FFF" stroke="#000" stroke-width="0"/><g fill="none" stroke="#000" stroke-width=".9"><clipPath id="clip1"><rect width="495" height="495" x="0" y="0"/></clipPath><g clip-path="url(#clip1)"><polygon fill="#FF0" stroke="#000" stroke-width="0" points="255 78 255 78 255 82 253 85 251 87 248 89 244 90 241 90 238 89 235 87 233 84 231 81 231 77 231 74 233 71 235 68 238 66 241 65 245 65 248 67 251 68 253 71 255 74 255 78"/><polygon fill="none" stroke="#FF0" stroke-width="15" points="255 78 255 78 255 82 253 85 251 87 248 89 244 90 241 90 238 89 235 87 233 84 231 81 231 77 231 74 233 71 235 68 238 66 241 65 245 65 248 67 251 68 253 71 255 74 255 78"/><polygon fill="#FF0" stroke="#000" stroke-width="0" points="367 375 367 376 366 380 364 383 362 385 359 387 356 388 352 388 349 386 346 384 344 382 343 379 342 375 343 372 344 369 347 366 350 364 353 363 356 363 360 364 363 366 365 369 366 372 367 375"/><polygon fill="none" stroke="#FF0" stroke-width="15" points="367 375 367 376 366 380 364 383 362 385 359 387 356 388 352 388 349 386 346 384 344 382 343 379 342 375 343 372 344 369 347 366 350 364 353 363 356 363 360 364 363 366 365 369 366 372 367 375"/><polygon fill="#FF0" stroke="#000" stroke-width="0" points="105 272 105 273 105 276 103 279 101 282 98 283 94 284 91 284 88 283 85 281 83 278 81 275 81 272 82 268 83 265 85 263 88 261 92 260 95 260 98 261 101 263 104 265 105 269 105 272"/><polygon fill="none" stroke="#FF0" stroke-width="15" points="105 272 105 273 105 276 103 279 101 282 98 283 94 284 91 284 88 283 85 281 83 278 81 275 81 272 82 268 83 265 85 263 88 261 92 260 95 260 98 261 101 263 104 265 105 269 105 272"/><polyline fill="none" stroke="#000" stroke-width="15" points="257 224 132 112"/><polyline fill="none" stroke="#000" stroke-width="15" points="257 224 389 220"/><polyline fill="none" stroke="#000" stroke-width="15" points="257 224 214 381"/><polyline fill="none" stroke="#000" stroke-width="15" points="214 381 93 272"/><polyline fill="none" stroke="#000" stroke-width="15" points="93 272 132 112"/><polyline fill="none" stroke="#000" stroke-width="15" points="132 112 27 9"/><polyline fill="none" stroke="#000" stroke-width="15" points="132 112 243 78"/><polyline fill="none" stroke="#000" stroke-width="15" points="243 78 352 103"/><polyline fill="none" stroke="#000" stroke-width="15" points="352 103 389 220"/><polyline fill="none" stroke="#000" stroke-width="15" points="352 103 465 17"/><polyline fill="none" stroke="#000" stroke-width="15" points="243 78 237 14"/><polyline fill="none" stroke="#000" stroke-width="15" points="389 220 355 375"/><polyline fill="none" stroke="#000" stroke-width="15" points="355 375 214 381"/><polyline fill="none" stroke="#000" stroke-width="15" points="355 375 442 483"/><polyline fill="none" stroke="#000" stroke-width="15" points="214 381 122 468"/><polyline fill="none" stroke="#000" stroke-width="15" points="93 272 30 306"/><polyline fill="none" stroke="#000" stroke-width="15" points="389 220 471 217"/><polyline fill="none" stroke="red" stroke-width="15" points="243 78 352 103"/><polyline fill="none" stroke="red" stroke-width="15" points="352 103 465 17"/><polyline fill="none" stroke="red" stroke-width="15" points="243 78 237 14"/><polyline fill="none" stroke="red" stroke-width="15" points="132 112 243 78"/><polyline fill="none" stroke="red" stroke-width="15" points="132 112 27 9"/><polyline fill="none" stroke="red" stroke-width="15" points="352 103 378 184"/><polyline fill="none" stroke="red" stroke-width="15" points="126 135 132 112"/><polyline fill="none" stroke="red" stroke-width="15" points="257 224 260 224"/><polyline fill="none" stroke="red" stroke-width="15" points="257 224 132 112"/><polyline fill="none" stroke="red" stroke-width="15" points="257 224 255 233"/><polyline fill="none" stroke="#00F" stroke-width="15" points="389 220 471 217"/><polyline fill="none" stroke="#00F" stroke-width="15" points="378 184 389 220"/><polyline fill="none" stroke="#00F" stroke-width="15" points="389 220 355 375"/><polyline fill="none" stroke="#00F" stroke-width="15" points="355 375 442 483"/><polyline fill="none" stroke="#00F" stroke-width="15" points="355 375 214 381"/><polyline fill="none" stroke="#00F" stroke-width="15" points="214 381 206 374"/><polyline fill="none" stroke="#00F" stroke-width="15" points="214 381 122 468"/><polyline fill="none" stroke="#00F" stroke-width="15" points="260 224 389 220"/><polyline fill="none" stroke="#00F" stroke-width="15" points="255 233 214 381"/><polyline fill="none" stroke="#0F0" stroke-width="15" points="206 374 93 272"/><polyline fill="none" stroke="#0F0" stroke-width="15" points="93 272 126 135"/><polyline fill="none" stroke="#0F0" stroke-width="15" points="93 272 30 306"/></g></g></svg>
