<svg xmlns="http://www.w3.org/2000/svg" id="/putrela0/mpasol/blazek/inst/qgiscvs07/plugins/grass/modules/v.overlay.not.3" width="500" height="500" x="0" y="0"><rect width="500" height="500" x="0" y="0" fill="#FFF" stroke="#000" stroke-width="0"/><g fill="none" stroke="#000" stroke-width=".9"><clipPath id="clip1"><rect width="500" height="500" x="0" y="0"/></clipPath><g clip-path="url(#clip1)"><polygon fill="#AFF" stroke="#000" stroke-width="0" points="328 386 279 386 222 371 186 350 167 319 142 274 135 234 136 194 144 156 155 131 177 109 206 98 248 86 273 84 293 89 322 110 318 112 284 136 273 172 272 222 281 261 295 296 303 330 306 352 325 384 328 386"/><polygon fill="none" stroke="#00F" stroke-width="15" points="328 386 279 386 222 371 186 350 167 319 142 274 135 234 136 194 144 156 155 131 177 109 206 98 248 86 273 84 293 89 322 110 318 112 284 136 273 172 272 222 281 261 295 296 303 330 306 352 325 384 328 386"/></g></g></svg>