<svg xmlns="http://www.w3.org/2000/svg" id="/putrela0/mpasol/blazek/inst/qgiscvs07/plugins/grass/modules/v.overlay.and.3" width="500" height="500" x="0" y="0"><rect width="500" height="500" x="0" y="0" fill="#FFF" stroke="#000" stroke-width="0"/><g fill="none" stroke="#000" stroke-width=".9"><clipPath id="clip1"><rect width="500" height="500" x="0" y="0"/></clipPath><g clip-path="url(#clip1)"><polygon fill="#AFF" stroke="#000" stroke-width="0" points="279 150 294 165 309 191 309 207 302 233 297 277 297 310 294 338 278 373 239 385 230 385 227 384 208 351 205 330 197 295 183 260 174 221 175 171 186 135 220 111 224 109 229 113 257 131 279 150"/><polygon fill="none" stroke="#00F" stroke-width="15" points="279 150 294 165 309 191 309 207 302 233 297 277 297 310 294 338 278 373 239 385 230 385 227 384 208 351 205 330 197 295 183 260 174 221 175 171 186 135 220 111 224 109 229 113 257 131 279 150"/></g></g></svg>
