<svg xmlns="http://www.w3.org/2000/svg" id="/putrela0/mpasol/blazek/inst/qgiscvs07/plugins/grass/modules/v.overlay.or.1" width="500" height="500" x="0" y="0"><rect width="500" height="500" x="0" y="0" fill="#FFF" stroke="#000" stroke-width="0"/><g fill="none" stroke="#000" stroke-width=".9"><clipPath id="clip1"><rect width="500" height="500" x="0" y="0"/></clipPath><g clip-path="url(#clip1)"><polygon fill="#AFF" stroke="#000" stroke-width="0" points="365 149 382 165 399 195 399 213 391 241 385 290 385 328 382 358 363 398 320 410 255 412 192 395 151 371 130 337 102 287 94 241 95 197 104 155 117 126 142 101 174 90 220 76 249 74 271 80 309 107 341 128 365 149"/><polygon fill="none" stroke="#00F" stroke-width="15" points="365 149 382 165 399 195 399 213 391 241 385 290 385 328 382 358 363 398 320 410 255 412 192 395 151 371 130 337 102 287 94 241 95 197 104 155 117 126 142 101 174 90 220 76 249 74 271 80 309 107 341 128 365 149"/></g></g></svg>
