<svg xmlns="http://www.w3.org/2000/svg" id="/putrela0/mpasol/blazek/inst/qgiscvs07/plugins/grass/modules/v.select.overlap.3" width="500" height="500" x="0" y="0"><rect width="500" height="500" x="0" y="0" fill="#FFF" stroke="#000" stroke-width="0"/><g fill="none" stroke="#000" stroke-width=".9"><clipPath id="clip1"><rect width="500" height="500" x="0" y="0"/></clipPath><g clip-path="url(#clip1)"><polygon fill="#AFF" stroke="#000" stroke-width="0" points="167 375 169 404 167 443 129 433 92 432 67 433 36 423 29 423 30 382 34 360 73 367 111 370 167 375"/><polygon fill="none" stroke="#00F" stroke-width="15" points="167 375 169 404 167 443 129 433 92 432 67 433 36 423 29 423 30 382 34 360 73 367 111 370 167 375"/><polygon fill="#AFF" stroke="#000" stroke-width="0" points="167 375 111 370 73 367 34 360 46 346 102 317 114 300 126 318 141 339 161 367 167 375"/><polygon fill="none" stroke="#00F" stroke-width="15" points="167 375 111 370 73 367 34 360 46 346 102 317 114 300 126 318 141 339 161 367 167 375"/><polygon fill="#AFF" stroke="#000" stroke-width="0" points="202 248 199 274 203 292 209 305 216 317 199 332 181 353 167 375 161 367 141 339 126 318 114 300 115 287 129 264 134 237 202 248"/><polygon fill="none" stroke="#00F" stroke-width="15" points="202 248 199 274 203 292 209 305 216 317 199 332 181 353 167 375 161 367 141 339 126 318 114 300 115 287 129 264 134 237 202 248"/><polygon fill="#AFF" stroke="#000" stroke-width="0" points="267 301 262 293 258 280 244 259 234 232 260 220 291 206 310 215 355 217 373 229 366 254 312 284 267 301"/><polygon fill="none" stroke="#00F" stroke-width="15" points="267 301 262 293 258 280 244 259 234 232 260 220 291 206 310 215 355 217 373 229 366 254 312 284 267 301"/><polygon fill="#AFF" stroke="#000" stroke-width="0" points="202 248 220 236 234 232 244 259 258 280 262 293 267 301 251 307 216 317 209 305 203 292 199 274 202 248"/><polygon fill="none" stroke="#00F" stroke-width="15" points="202 248 220 236 234 232 244 259 258 280 262 293 267 301 251 307 216 317 209 305 203 292 199 274 202 248"/><polygon fill="#AFF" stroke="#000" stroke-width="0" points="373 229 355 217 310 215 291 206 350 155 433 159 461 169 451 202 453 241 373 229"/><polygon fill="none" stroke="#00F" stroke-width="15" points="373 229 355 217 310 215 291 206 350 155 433 159 461 169 451 202 453 241 373 229"/><polygon fill="#AFF" stroke="#000" stroke-width="0" points="461 169 433 159 350 155 346 108 341 61 367 63 443 64 457 112 461 169"/><polygon fill="none" stroke="#00F" stroke-width="15" points="461 169 433 159 350 155 346 108 341 61 367 63 443 64 457 112 461 169"/></g></g></svg>
