<svg xmlns="http://www.w3.org/2000/svg" id="/putrela0/mpasol/blazek/inst/qgiscvs07/plugins/grass/modules/v.voronoi.line.2" width="500" height="500" x="0" y="0"><rect width="500" height="500" x="0" y="0" fill="#FFF" stroke="#000" stroke-width="0"/><g fill="none" stroke="#000" stroke-width=".9"><clipPath id="clip1"><rect width="500" height="500" x="0" y="0"/></clipPath><g clip-path="url(#clip1)"><polyline fill="none" stroke="#00F" stroke-width="15" points="108 256 268 459" transform="translate(2.84217e-14,-0.994036)"/><polyline fill="none" stroke="#00F" stroke-width="15" points="108 256 331 168" transform="translate(2.84217e-14,-0.994036)"/><polyline fill="none" stroke="#00F" stroke-width="15" points="268 459 331 168" transform="translate(2.84217e-14,-0.994036)"/><polyline fill="none" stroke="#00F" stroke-width="15" points="108 256 34 238" transform="translate(2.84217e-14,-0.994036)"/><polyline fill="none" stroke="#00F" stroke-width="15" points="331 168 430 34" transform="translate(2.84217e-14,-0.994036)"/><polyline fill="none" stroke="#00F" stroke-width="15" points="268 459 269 464" transform="translate(2.84217e-14,-0.994036)"/><polyline fill="none" stroke="#00F" stroke-width="15" points="269 464 34 464" transform="translate(2.84217e-14,-0.994036)"/><polyline fill="none" stroke="#00F" stroke-width="15" points="464 464 269 464" transform="translate(2.84217e-14,-0.994036)"/><polyline fill="none" stroke="#00F" stroke-width="15" points="464 34 464 464" transform="translate(2.84217e-14,-0.994036)"/><polyline fill="none" stroke="#00F" stroke-width="15" points="430 34 464 34" transform="translate(2.84217e-14,-0.994036)"/><polyline fill="none" stroke="#00F" stroke-width="15" points="34 34 430 34" transform="translate(2.84217e-14,-0.994036)"/><polyline fill="none" stroke="#00F" stroke-width="15" points="34 238 34 34" transform="translate(2.84217e-14,-0.994036)"/><polyline fill="none" stroke="#00F" stroke-width="15" points="34 464 34 238" transform="translate(2.84217e-14,-0.994036)"/></g></g></svg>